<mxfile host="app.diagrams.net" modified="2024-03-16T16:03:24.631Z" agent="Mozilla/5.0 (Windows NT 10.0; Win64; x64) AppleWebKit/537.36 (KHTML, like Gecko) Chrome/122.0.0.0 Safari/537.36" etag="oa9k0SAYX6MRY-DCdmlt" version="24.0.5" type="github">
  <diagram name="第 1 页" id="Nx_MwZ96kIjACPcZ-opn">
    <mxGraphModel dx="1898" dy="576" grid="1" gridSize="10" guides="1" tooltips="1" connect="1" arrows="1" fold="1" page="1" pageScale="1" pageWidth="827" pageHeight="1169" math="0" shadow="0">
      <root>
        <mxCell id="0" />
        <mxCell id="1" parent="0" />
        <mxCell id="yoNPwfW2ZA3Lmr0KiJ5B-49" value="" style="rounded=0;whiteSpace=wrap;html=1;" vertex="1" parent="1">
          <mxGeometry x="-10" y="410" width="290" height="190" as="geometry" />
        </mxCell>
        <mxCell id="yoNPwfW2ZA3Lmr0KiJ5B-1" value="" style="rounded=0;whiteSpace=wrap;html=1;" vertex="1" parent="1">
          <mxGeometry x="390" y="175" width="400" height="40" as="geometry" />
        </mxCell>
        <mxCell id="yoNPwfW2ZA3Lmr0KiJ5B-3" value="" style="rounded=0;whiteSpace=wrap;html=1;" vertex="1" parent="1">
          <mxGeometry x="390" y="175" width="50" height="40" as="geometry" />
        </mxCell>
        <mxCell id="yoNPwfW2ZA3Lmr0KiJ5B-4" value="" style="rounded=0;whiteSpace=wrap;html=1;" vertex="1" parent="1">
          <mxGeometry x="440" y="175" width="50" height="40" as="geometry" />
        </mxCell>
        <mxCell id="yoNPwfW2ZA3Lmr0KiJ5B-5" value="1" style="rounded=0;whiteSpace=wrap;html=1;" vertex="1" parent="1">
          <mxGeometry x="490" y="175" width="50" height="40" as="geometry" />
        </mxCell>
        <mxCell id="yoNPwfW2ZA3Lmr0KiJ5B-6" value="3" style="rounded=0;whiteSpace=wrap;html=1;" vertex="1" parent="1">
          <mxGeometry x="540" y="175" width="50" height="40" as="geometry" />
        </mxCell>
        <mxCell id="yoNPwfW2ZA3Lmr0KiJ5B-7" value="2" style="rounded=0;whiteSpace=wrap;html=1;" vertex="1" parent="1">
          <mxGeometry x="590" y="175" width="50" height="40" as="geometry" />
        </mxCell>
        <mxCell id="yoNPwfW2ZA3Lmr0KiJ5B-8" value="" style="rounded=0;whiteSpace=wrap;html=1;" vertex="1" parent="1">
          <mxGeometry x="640" y="175" width="50" height="40" as="geometry" />
        </mxCell>
        <mxCell id="yoNPwfW2ZA3Lmr0KiJ5B-9" value="" style="rounded=0;whiteSpace=wrap;html=1;" vertex="1" parent="1">
          <mxGeometry x="690" y="175" width="50" height="40" as="geometry" />
        </mxCell>
        <mxCell id="yoNPwfW2ZA3Lmr0KiJ5B-10" value="" style="rounded=0;whiteSpace=wrap;html=1;" vertex="1" parent="1">
          <mxGeometry x="740" y="175" width="50" height="40" as="geometry" />
        </mxCell>
        <mxCell id="yoNPwfW2ZA3Lmr0KiJ5B-11" value="n+1" style="text;html=1;align=center;verticalAlign=middle;whiteSpace=wrap;rounded=0;" vertex="1" parent="1">
          <mxGeometry x="535" y="215" width="60" height="30" as="geometry" />
        </mxCell>
        <mxCell id="yoNPwfW2ZA3Lmr0KiJ5B-12" value="n+2" style="text;html=1;align=center;verticalAlign=middle;whiteSpace=wrap;rounded=0;" vertex="1" parent="1">
          <mxGeometry x="590" y="215" width="60" height="30" as="geometry" />
        </mxCell>
        <mxCell id="yoNPwfW2ZA3Lmr0KiJ5B-13" value="n+3" style="text;html=1;align=center;verticalAlign=middle;whiteSpace=wrap;rounded=0;" vertex="1" parent="1">
          <mxGeometry x="635" y="215" width="60" height="30" as="geometry" />
        </mxCell>
        <mxCell id="yoNPwfW2ZA3Lmr0KiJ5B-14" value="n" style="text;html=1;align=center;verticalAlign=middle;whiteSpace=wrap;rounded=0;" vertex="1" parent="1">
          <mxGeometry x="480" y="215" width="60" height="30" as="geometry" />
        </mxCell>
        <mxCell id="yoNPwfW2ZA3Lmr0KiJ5B-15" value="原0" style="text;html=1;align=center;verticalAlign=middle;whiteSpace=wrap;rounded=0;" vertex="1" parent="1">
          <mxGeometry x="535" y="245" width="60" height="30" as="geometry" />
        </mxCell>
        <mxCell id="yoNPwfW2ZA3Lmr0KiJ5B-17" value="1" style="rounded=0;whiteSpace=wrap;html=1;fillColor=#dae8fc;strokeColor=#6c8ebf;" vertex="1" parent="1">
          <mxGeometry x="30" y="140" width="50" height="40" as="geometry" />
        </mxCell>
        <mxCell id="yoNPwfW2ZA3Lmr0KiJ5B-18" value="-1" style="rounded=0;whiteSpace=wrap;html=1;fillColor=#dae8fc;strokeColor=#6c8ebf;" vertex="1" parent="1">
          <mxGeometry x="80" y="140" width="50" height="40" as="geometry" />
        </mxCell>
        <mxCell id="yoNPwfW2ZA3Lmr0KiJ5B-19" value="-1" style="rounded=0;whiteSpace=wrap;html=1;fillColor=#dae8fc;strokeColor=#6c8ebf;" vertex="1" parent="1">
          <mxGeometry x="130" y="140" width="50" height="40" as="geometry" />
        </mxCell>
        <mxCell id="yoNPwfW2ZA3Lmr0KiJ5B-20" value="1" style="rounded=0;whiteSpace=wrap;html=1;fillColor=#dae8fc;strokeColor=#6c8ebf;" vertex="1" parent="1">
          <mxGeometry x="180" y="140" width="50" height="40" as="geometry" />
        </mxCell>
        <mxCell id="yoNPwfW2ZA3Lmr0KiJ5B-21" value="1" style="rounded=0;whiteSpace=wrap;html=1;fillColor=#f8cecc;strokeColor=#b85450;" vertex="1" parent="1">
          <mxGeometry x="230" y="140" width="50" height="40" as="geometry" />
        </mxCell>
        <mxCell id="yoNPwfW2ZA3Lmr0KiJ5B-22" value="2" style="rounded=0;whiteSpace=wrap;html=1;" vertex="1" parent="1">
          <mxGeometry x="30" y="50" width="50" height="40" as="geometry" />
        </mxCell>
        <mxCell id="yoNPwfW2ZA3Lmr0KiJ5B-23" value="1" style="rounded=0;whiteSpace=wrap;html=1;" vertex="1" parent="1">
          <mxGeometry x="80" y="50" width="50" height="40" as="geometry" />
        </mxCell>
        <mxCell id="yoNPwfW2ZA3Lmr0KiJ5B-24" value="1" style="rounded=0;whiteSpace=wrap;html=1;" vertex="1" parent="1">
          <mxGeometry x="130" y="50" width="50" height="40" as="geometry" />
        </mxCell>
        <mxCell id="yoNPwfW2ZA3Lmr0KiJ5B-25" value="2" style="rounded=0;whiteSpace=wrap;html=1;" vertex="1" parent="1">
          <mxGeometry x="180" y="50" width="50" height="40" as="geometry" />
        </mxCell>
        <mxCell id="yoNPwfW2ZA3Lmr0KiJ5B-26" value="2" style="rounded=0;whiteSpace=wrap;html=1;" vertex="1" parent="1">
          <mxGeometry x="230" y="50" width="50" height="40" as="geometry" />
        </mxCell>
        <mxCell id="yoNPwfW2ZA3Lmr0KiJ5B-27" value="" style="shape=flexArrow;endArrow=classic;html=1;rounded=0;" edge="1" parent="1">
          <mxGeometry width="50" height="50" relative="1" as="geometry">
            <mxPoint x="154.5" y="100" as="sourcePoint" />
            <mxPoint x="154.5" y="140" as="targetPoint" />
          </mxGeometry>
        </mxCell>
        <mxCell id="yoNPwfW2ZA3Lmr0KiJ5B-28" value="" style="endArrow=classic;startArrow=classic;html=1;rounded=0;" edge="1" parent="1">
          <mxGeometry width="50" height="50" relative="1" as="geometry">
            <mxPoint x="10" y="200" as="sourcePoint" />
            <mxPoint x="30" y="200" as="targetPoint" />
          </mxGeometry>
        </mxCell>
        <mxCell id="yoNPwfW2ZA3Lmr0KiJ5B-29" value="" style="endArrow=classic;startArrow=classic;html=1;rounded=0;" edge="1" parent="1">
          <mxGeometry width="50" height="50" relative="1" as="geometry">
            <mxPoint x="30" y="210" as="sourcePoint" />
            <mxPoint x="80" y="210" as="targetPoint" />
          </mxGeometry>
        </mxCell>
        <mxCell id="yoNPwfW2ZA3Lmr0KiJ5B-30" value="" style="endArrow=classic;startArrow=classic;html=1;rounded=0;" edge="1" parent="1">
          <mxGeometry width="50" height="50" relative="1" as="geometry">
            <mxPoint x="30" y="230" as="sourcePoint" />
            <mxPoint x="130" y="230" as="targetPoint" />
          </mxGeometry>
        </mxCell>
        <mxCell id="yoNPwfW2ZA3Lmr0KiJ5B-31" value="" style="endArrow=classic;startArrow=classic;html=1;rounded=0;" edge="1" parent="1">
          <mxGeometry width="50" height="50" relative="1" as="geometry">
            <mxPoint x="30" y="250" as="sourcePoint" />
            <mxPoint x="180" y="250" as="targetPoint" />
          </mxGeometry>
        </mxCell>
        <mxCell id="yoNPwfW2ZA3Lmr0KiJ5B-32" value="" style="endArrow=classic;startArrow=classic;html=1;rounded=0;" edge="1" parent="1">
          <mxGeometry width="50" height="50" relative="1" as="geometry">
            <mxPoint x="30" y="270" as="sourcePoint" />
            <mxPoint x="230" y="270" as="targetPoint" />
          </mxGeometry>
        </mxCell>
        <mxCell id="yoNPwfW2ZA3Lmr0KiJ5B-33" value="" style="endArrow=classic;startArrow=classic;html=1;rounded=0;" edge="1" parent="1">
          <mxGeometry width="50" height="50" relative="1" as="geometry">
            <mxPoint x="30" y="300" as="sourcePoint" />
            <mxPoint x="280" y="300" as="targetPoint" />
          </mxGeometry>
        </mxCell>
        <mxCell id="yoNPwfW2ZA3Lmr0KiJ5B-34" value="0" style="text;html=1;align=center;verticalAlign=middle;whiteSpace=wrap;rounded=0;" vertex="1" parent="1">
          <mxGeometry x="-20" y="180" width="60" height="30" as="geometry" />
        </mxCell>
        <mxCell id="yoNPwfW2ZA3Lmr0KiJ5B-35" value="1" style="text;html=1;align=center;verticalAlign=middle;whiteSpace=wrap;rounded=0;" vertex="1" parent="1">
          <mxGeometry x="60" y="190" width="60" height="30" as="geometry" />
        </mxCell>
        <mxCell id="yoNPwfW2ZA3Lmr0KiJ5B-36" value="0" style="text;html=1;align=center;verticalAlign=middle;whiteSpace=wrap;rounded=0;" vertex="1" parent="1">
          <mxGeometry x="110" y="210" width="60" height="30" as="geometry" />
        </mxCell>
        <mxCell id="yoNPwfW2ZA3Lmr0KiJ5B-37" value="-1" style="text;html=1;align=center;verticalAlign=middle;whiteSpace=wrap;rounded=0;" vertex="1" parent="1">
          <mxGeometry x="160" y="230" width="60" height="30" as="geometry" />
        </mxCell>
        <mxCell id="yoNPwfW2ZA3Lmr0KiJ5B-38" value="0" style="text;html=1;align=center;verticalAlign=middle;whiteSpace=wrap;rounded=0;" vertex="1" parent="1">
          <mxGeometry x="210" y="250" width="60" height="30" as="geometry" />
        </mxCell>
        <mxCell id="yoNPwfW2ZA3Lmr0KiJ5B-39" value="1" style="text;html=1;align=center;verticalAlign=middle;whiteSpace=wrap;rounded=0;fillColor=#f5f5f5;fontColor=#333333;strokeColor=#666666;" vertex="1" parent="1">
          <mxGeometry x="280" y="270" width="60" height="30" as="geometry" />
        </mxCell>
        <mxCell id="yoNPwfW2ZA3Lmr0KiJ5B-40" value="" style="shape=flexArrow;endArrow=classic;html=1;rounded=0;" edge="1" parent="1">
          <mxGeometry width="50" height="50" relative="1" as="geometry">
            <mxPoint x="614.5" y="120" as="sourcePoint" />
            <mxPoint x="614.5" y="160" as="targetPoint" />
          </mxGeometry>
        </mxCell>
        <mxCell id="yoNPwfW2ZA3Lmr0KiJ5B-41" value="ans + n +1" style="text;html=1;align=center;verticalAlign=middle;whiteSpace=wrap;rounded=0;" vertex="1" parent="1">
          <mxGeometry x="580" y="90" width="60" height="30" as="geometry" />
        </mxCell>
        <mxCell id="yoNPwfW2ZA3Lmr0KiJ5B-42" value="" style="shape=image;verticalLabelPosition=bottom;labelBackgroundColor=default;verticalAlign=top;aspect=fixed;imageAspect=0;image=data:image/png,iVBORw0KGgoAAAANSUhEUgAAAs4AAAFxCAYAAABjmC4RAAAgAElEQVR4Aey9+28cVbb37b8ndttuu+OO77fYbsf3S9vt7rbjxI9JTDKOY+Z1dCIYMjlJ4M0LZ4DAnDwgCGeAQSiJkBIxgmd0FIREpGiiiEt0OFFORoAYGEQsS1aIArL0fZ9dVbu6qrqqu7rd9/7+UOpbXXat/dm7vnv12mtXeHZUgxttQAbIABkgA2SADJABMkAGEjNQQQMlNhDtQ/uQATJABsgAGSADZIAMCAYonOlx5z8OZIAMkAEyQAbIABkgAy4YoHB2YSSOMjnKJANkgAyQATJABsgAGaBwpnDmCNOBgYCnC5d7lvGJnx0FHxYaA/5Z3OsZw3MeMkEmyAAZIAPlyACFs4NoKngY6mbxXeQkHlm3PcMZF8Knu47FXydyDJ/UlWinUdmEN3uO4dH8s8C+Z3GvuUTvs1jZz2e5m48qTGD+JL7rGcCxSrJR8H1lPnnhtTP+PCJv7HPyzQCFc7F2bPX7sblPFXZC3OnbyFjGO6rnep6MnV+/1pO4UV+CDbiqBzemNHvufRL3eibxEr2LGWcq3x1f2tf3dOGDnqPY3KsxMrUXz1E8k49ifY6w3GSXDKTMQEVTzwTCM1FExNbblPwElV40tOzByMSMdlwEoYlR9Lf4UVtwD5AgXvzoDjZ+/hVbW+Zt4/rZ5PdayEDpwvkoLrstZ9UTmHvsC7z2x01cfF3d3v3j9/jDY6+is8qtCG7HjZAQDaUonNtxY1oKov14ybVN3NqO+6UtWN0ynsJ+Xu8ZLP8/X+PC+TTag3GANTmLp1O4biHZgGVhmyQDZIAMpMZAhRDM4VDEnXD27ELvqLavOC44hWDQ8Hm0D/4C8s499Z8/xATzzw/wcDO2ffOfp8pLOHvP4eTzMYFw8fx9vGUQDBefv4ZxV0KxdIXz013HVc96eBGvFtwgMLWGzY4wsb283dfw2mvm9vDu/zZ8/v9ctIfKHnwWVgdaP3W1FHd/QuHP+iMDZIAMuGKgItjfAd+uflfC2d8dUvebHERrreHBVNuGgUnVaz3dvcvVhbP/YD+F6/dVL/OPHy0VSJkMNtsuoCl5nPuw/9h91cv8xztY7ZjU7bGz4yrOaR7od4+9Cm/ScpWocK4cxldzQgSdxldNGaynpPbktbLfF1hsXHUOJ19SRfK7J69i3NuntYc+NPZ/hH/X2sOFw2f0duJUxkDTIXWwNXcI73KwldReTnbk9xZG2W+QJTJQsAyoMc5+N8J5F3qDQhzPoHenTSPf2YeQCPcI9sFfEBV+Ftc3hHBex/VnbMpbEGXcRrlSEs6v4qziXb6PM0NSJMSu7R26ibdE6Mb5m9if1C65FM5juKfEVKcQjpK0/LH7Nj2sGzUBFF7ES+meg8cVbEdnquvRm3hX8m7zL0vrvq/VQeYfrmE4aZ324LOINuBqdGAr6Tl4nKl+aK/iaEesJ9ZTmTKQgnBuQkCJhR5Hh9HbLA1X24kx5fd+NMrv8vpK4aw/jDqv4YIS0/wFHretkz/jD8rv3+N4W7KHeGkK5+d6T6iew4EBF53hRdxVYubv4NKOAE69/yV+3IzF0G98+ykuPBFwcZ5ktnb6PdsDitK+v56p6zh7/Auc3f+8fR0lbS/menlz4LTCzmZvl/35bNuc+Rx6W+W+tCEZIANkoKAZSEE4+9AxIjzOEQw01sTdVHXjoDpZcKQT9Xmq9Hc+j8Uwi3hmfUKgJb5Z/JaRGGenlHDWFHHZSN2Wisc5qRCICeenO5M90EtTOF8eUWNVN3va49iOFzUxYfnRe3fwUIjoXx7goXES6s93cGkpmS3T/T13wrk07y+J3Y0eaRd9mZ51JgsZbeLZS1J2F+XlOWlDMkAGyED6DKQgnKtR6+/HtPAqTw6h3Wu4qLcDg0qMcwgBv9eF8DAcm8GO/tLdmNdPF82WbBry+4xk1dDFqyq69JRweso2+X0WMlDo13YRxmAVzlWv4szLm7j48k3sV/6qLgTh7MMHo6exObaIvzY0Iahw0YUbM88CM/vxnPhc6cNzjbP4bOxJPBqdxkIG2UlPOK9j4/46bl1YQ0ArS/DUh/hGCujbb2SpLeRKOJfq/SXuf4YPf6+Gapy66urfMwrnxPbkA5r2IQNkoJQYSEk4ixv3+vswomXSMGbVCI+PoMdflyWhkA50DNXQQbUKZ/3z91A9zAUgnKum8Z1xwBE9jq/a2vGu+Bt8YBin25axqUze0wYje4/isk18qn7PKYrq9ITzr/jx46fimF+4+rX6b8fmTZxPsRzuyp8r4Vyq95egP6l6FWe1yYHnZvfF1a1d/VA4J7BnVvjn9ew45HfkggzkhoGUhXOtrxMDI6FY7mclrjmC0BiFc06h3Y7HuRCFs3jAVjXgpeb9+GrsOB7NSoH8LKCt4IfZk9gcO4gbzV14PIOiWdRbesJ5HdfP2jTUZz7Fhh4DbfP7tsVEroRzqd6fU50Yss8872ZioHoeCmcne/L7nD4Ttt2vsL5YX2TADQMpCef61lFVME8OocMX8y57fZ1aqEYEY20+V14aN4Xb3j70OOv204WyNjlQ/1xAHmebTv/xpkPqCm17n8Rn/oascpW2cLbL2JJh4awLM6NH3uG9uxjtZJ2jjOF2yEhT9Pdnd/99GJchGq99j6e747PP6O3JwqpeP4xxzmobdbI/v7fjmd+RCzKQLQbcC+eqVgyExOTAcXQZ45vlQ8TbrWbVCA2iJcPewPRunsJZt5sulItHOD/efBSPhDgcHMa7g6eB+ZO415w98VzIwvl01zE8Mk04VbM4iJh68/cn8V1GFuLIrXDO/f1ZHyiTmDqspaB77XucHDqQkgCkcLbak5/1vlc+H/maUpui/diGCpkB98K5oT9J1gwfukbVRVAC/kKo9BwI52LNqlGQkwNjzAREGIoSnnEcn4jUh75FVUTPZ2GSpfZAK2ThHN+B5DBUIwce9dzfX4w1T9UTeOyYNhkwDdEsyk7hbLAnBSIFIhkgAyXOgHvhLBdJcUw3J9PVRVE2wlmPM5bZM5xesyD49GunkVUjDurY5MC853Gu7MKNkGrHRwMDWrYKHy4PnVTzLE/vx3NZWKHt1X71/I/6e1x0ern1yOZeWJb6/WlCr+Z5HD8jV9T8GmsphGcY6yQ1digyjbbje/JABshAsTHgXjjX7UZQmQg4ivZqm4qu7sCI8rvDAilxYs3mHBndJwce54yWN0V7pCKcdxTPyoFR3378tPdZYPYQ3jQKZM8w7okJg3uP44Yv8ykPF9p/qwrzqVk8nbReS11Ylvr9VcO7602cfUFddvviCzex32411KQciDbbgk+m1IHeveYU27Cr8/OcxfZQZXnJLBkobQbcC+cdMY9yeLQPjUbxXN2E3tEIIjNRhAfb4C2IBwKFc6zxGrIF/PEOVjsmda/qzo6rOKel33rr6DkXdZeDBVCqevBqfXzDC9T34KVsxc97pvGdEh5yAp/54q8ds6X4rdSFZYnfX+dV/Ltk/sxHmKpJVt8JftfDiH6LDzwJ9iuIPpHlM7dj2oP2IANkIHUGKoLjUwhqeZkj0yEon8V341MYbIllzlCM623TsmeosczGPM5CNEcmB9GynYdQRh8uFM6mBuE9h5PPax42sbz2+ft467zh8/PXMO5KlOZAOGeUA/eN4s0Bt+Eg+RaW7u/JxIBru5b4/YW+UBc4eX0T7758H285bnewlmgJehFWNG0NK8p23fD86TFNu9FuZIAMZIaBCkXwKiEWqhg2frZNLVfpQ1PXCMal2J6JIDQxiv62JtQb/1p3/ZDOzI3EA0HhHGeTqicw99gXeE3ztl0UwuGP3+MPj72KTleiWdRV6Qpnj2dMDQcR2SpGp3HakecSF5Z596hnq0/QzmsQzqINOG8yXaNNeSpb8NdRbaA1u4zL9Dbr/2LF9Tt5fxbY1B/LxPoiA2QgTQbUUI00D2YHmccOOaUY50yWs4SF845qBOr3qjHWIhVe9Bg+aw3gadeDikzamecqyP6lqgmvdhzET1FtIvDsMXxiE1ZUkGVnP0+hQAbIABnYNgMUzsUKkS6cLbl89wxvGwrrQ9+aZ1ddyS8LmUIKpC4CNcP4SsvsIXIlc9IXRbzeJpqPqpNIxcAqdBDvFkxoGutIr6MC6UdYHjJJBkqTAQrnYu1kDcJZiDt9y8LqZXqeWuN19pWucJad3bGdM/hq8gS+YraEjA/GpI2L7rX5EDYnD+KvO5u0VIml+WAounop1n6c5WbfQgaKjgEKZ0JbdNDyoU6xRgbIABkgA2SADOSDAQpnCmcKZzJABsgAGSADZIAMkAEXDFA4uzBSPkY0vCZH0mSADJABMkAGyAAZKCwGKJwpnDnCJANkgAyQATJABsgAGXDBAIWzCyNxtFdYoz3WB+uDDJABMkAGyAAZyAcDFM4UzhxhkgEyQAbIABkgA2SADLhggMLZhZHyMaLhNTmSJgNkgAyQATJABshAYTFA4UzhzBEmGSADZIAMkAEyQAbIgAsGKJxdGImjvcIa7bE+WB9kgAyQATJABshAPhigcKZw5giTDJABMkAGyAAZIANkwAUDFM4ujJSPEQ2vyZE0GSADZIAMkAEyQAYKiwEKZwpnjjDJABkgA2SADJABMkAGXDBQ0dQzgfBMFBGx9TYlN1qlF76mXgyPzWjHRRCaGEV/ix+1lYU1KuAoLUP1UfUE5h77Aq/9cRMXX1e3d//4Pf7w2KvorMrQNVzAyvqkrckAGSADZIAMkIF8MlAhBHM4FHEnnCt96BjU9hXHBacQDBo+j/bB72GF5rNCM35t7zmcfD4mmC+ev4+3zhs+P38N4xTPyQecHBjQRmSADJABMkAGip6BimB/B3y7+l0JZ393SN1vchCttQaBXNuG/glVQId6m1BNMIoeDFWA92H/sfuql/mPd7DaManf186OqzineaDfPfYqvKxz3TYZH7zQtrQtGSADZIAMkIGCYECNcfa7EM5VrRgIiZCOILrrDKJZVmRtJ8aUkI8RtFbb/C7342tBVLw7cfcqzire5fs4M9QXV27v0E28JUI3zt/EftZrnH3c2ZhthXYiA2SADJABMlAsDLgXzg39akzzaDfqbUWSDx0jaqx0wJ9fAAJPvIGP767j4S+/YmtL235exzd/u4JTQbuyXcRdZb87uLQjgFPvf4kfN2PHbnz7KS48EXAURsFTV3DrW8v1fnmAjbuf4p0TzscVPCSd13BBiWn+Ao/b1vmf8Qfl9+9xvM3Orvyu4OvYtl5Zb6w3MkAGyAAZIAN2DLgXztIr3dfsKCCb+vIvnBcufIkNKZbF688PLAL6Di4tWWGICeeP3ruDh+K4Xx7g4c8x8bz1s91x1Qic/TT+epsPYoJ9ax23zmdIPNfN4rvISTxKuh3DJ3b/CqQqklIQzk93Wm3Kz3YNjt+RCzJABsgAGSADxcuAe+HswuPcNSqE85R9KEeqoi2t/V/ALc1TvHHrbTxl8C4Hj7+NW/c1IXz7bQRM55fCeR0b99dx68Ka/nvw1If4Rgro229YBg0L+Ohb9ZwP//6h2ZsdWMOFz9dVAb15Ey+arpcmMPX7sbnvWSDp9iRu1Kd5DWM5rcK56lWceXkTF1++if3KhMCYx5nCOQP2Ntqe7y1tjfblg5YMkAEyQAbyz4B74SxinJUY5hB6fTYF9/VhWvwe7IM/X2npAgtYObaGtWNLCNoJj1duqt7kzZs4b/pdCudf8ePHT8U9sBeufq0LYPNxZ3F9QxXOdy/Z2CRZeUxlsDk+379bhbP++XuoQpnCmZ1YAXKb73bD68f1oWwnbCdkgAyUCgPuhfOOGjT2zqhZNaZH0eP3oVoI5Moa1Pt7MTKthmlMd+8q3E7zGRlWIWKZjRBL4byO62eN32vvHY9bw8f/VIXzxvWzupe6VODw6EJZi3HWP1M4l0wdm9qBDfv8vXD7M9YN64YMkAEykHMGUhDO1fB4dqF3NJa3WVk0RXiZJ4OYnBLCeRTtec+oEcDahWu4+491PNx8YN5kyMVWAuH8jI14cBTO1Vi6pMVEK/HU6/jx7h3c/ds1XH3vPE4tBXNeoRkVdLpQpnDOqF3Z0RV3u2D9sf7IABkgA2XLQGrCWYBS6UVDyx6MjE8hOD6F8YFedHSNKhk38u9tXsI7t7W4YuMEwbj3mRPOHpssHHomj61f8fDba3jREGtdVAKMwrlsO4ai4pQPMHJKBsgAGSADOWIgdeFsLVh1G4ZFfufQIFryvWrgi1oM89Y67r5/FgsBi/fY0XNsCNVI0eNsFBjBpTWs/dvbuPr+h7j+3z+o8dRCtP/9Chasdkvnc76zanByIDumdLjlMeSGDJABMkAGSoSBbQpnHzqGRehGBMPNdXmH4ux1zdt896J9vHGWhbNRRIv3ATkZMS40xCLo3cKU76waceWMTQ5kHuc06zTOpjyPtR3xM5kgA2SADJCBQmFgW8K5vnVcXRRlpBv1+cqkYRAeunCOSxunArf0Fy07RpyQTdPjvHAW77x/BVfffwOnrN5tUa6FD/GNEiZiDQ0plgbAlQMLpaGyHMXSZlhOskoGyAAZKGUG0hfOYoltZQluh/R0BkGbKwMG/vSltvDIOq6/shDzOgcWcPb9O9j45w/40VbIpimcA2/jtrY64catN7BmFM8ij/OtDOdxzrlN+7D/2H1cFKsD/vEOVjsm9X8VdnZcxbk/biq/vXX0HLw5Lxs7ply1K16HrJEBMkAGyAAZUBmoEBP8gkEtU8Z0SJnwp3w3PoXBFqfwCxmiEcV0TxOqC0Y0ncV1uciJEMim1f8e4PaFK4altY2NIE3hvMOSVUNMBtQyecQmCD7A3UtLuuAsOvC853DyeVUgKwL6/H28dd7w+flrGFcWQzHak++Lrp4Lpg2THbJDBsgAGSADhctAhZ5STlncRM3FLL8ba/PZCr76Ni1EoxAmBFof+IFTuPr5D9jQPMFCwG7840tcPSVSw0mBbA2dkN+v43oakwODp67gtkh/Z7imEO2x6xYuAK4aZ9UTmHvsC7ymeZiFgH73j9/jD4+9ik6KZts24squVnb5mbYkA2SADJABMlDQDKihGqykgq4kirAiH3iwfbF9kQEyQAbIABkoCQYonAlySYDMwQUHF2SADJABMkAGyEC2GaBwpnCmcCYDZIAMkAEyQAbIABlwwQCFswsjZXv0wvNzhEwGyAAZIANkgAyQgcJngMKZwpkjTDJABsgAGSADZIAMkAEXDFA4uzASR4CFPwJkHbGOyAAZIANkgAyQgWwzQOFM4cwRJhkgA2SADJABMkAGyIALBiicXRgp26MXnp8jZDJABsgAGSADZIAMFD4DFM4UzhxhkgEyQAbIABkgA2SADLhggMLZhZE4Aiz8ESDriHVEBsgAGSADZIAMZJsBCmcKZ44wyQAZIANkgAyQATJABlwwQOHswkjZHr1Yzx/wdOFyzzI+8XPkaLWN42f/LO71jOE5D23maKMCZJ1lJa9kgAyQATJQTAxQOBeSmKhswps9x/Bo/llg37O418zG5LoxNR9VbIb5k/iuZwDHKmk717YrpDbAstDjQwbIABkgAwXMAIVzoVROVQ9uTKmCGXufxL2eSbxE76n7zsPThQ96jmJzr2bDqb14juLZvf0KpR2wHKwzMkAGyAAZKGAGKsaDEURmoojMRBCaGEV/ix+1iQRHpRcNLXswMjGDcCrHFbARknrmDo3h9f9Zw3v/sxdLqdyH6+PacWNaCr79eKmK3lJP1Qk8fvx7XHx9U91+92d3HYlxADI5i6dTqS/u687GtBPtRAbIABkgA2XKQIUQzeHgFIK6gI4iPNiJejvxXLUTXcNSaNscN+xwXLEb17UAtghel8c93XVcDTMIL+JVO7sXu/1SLL+37SrOvawJ5tdSFM7iWpU9+CysDkR+6mph55ai/ZMOJHk+MkUGyAAZIANlykCFUSBX13VgcFJ4n6MYa/PFQeHvDqne6clBtNYaRGJtGwa046a7d8UdV/QPYpcCOO4+3RxXOYyv5oTIO42vmgw2LVMge2bv4C1NLL915iNMRb5IzeOs2S3QdEgdjMwdwrscjJRemyzT9hHXx9AOZJsMkAEykFMG4mKca5uGVHE80ol6U2XsQm9QiOop9PhsBJ6vF0ERuhHsg990nM2+xfa7GwFsd09ujmvUBF54ES/ZnaPMvnv8d5u4+Nr3ODP5BLzi3kPpCWfPjh58FtEGJI0lwGCZcUCBSGbJABkgA2SgEBmIE86e2k6MKbHL/Wg0Pqydvtf3aUJAOW4cHTX5rWzvdCf+5T8P4p07Ii5Z3d65fRAvXurDUJtz2bzT3fj99d/gHXnM54/h98/uhDeJAE73OAHEc70nVM/owICLEdNF3N36FVtbd3BpRwCn3v8SP26Kz+q28e2nuPBEwMV5nG2QGNIx3NsnxOhRXNbrPd1z2R83t+8a5nYafktbOFfjzYHTim03e7uyaBNDWbNkk8R1wuvTPmSADJABMkAGcsVAvHD29SFk5zlORTgbwzhyLCYafx/Cf2jCV4jmd24fMQno9/5rL5bGbACbH8QrBqH93n/J447i+dfG8L+dJgeme5xml8sjaizuZk+7C3EXE84fvXcHD4Vg/uUBHv4cE89bP9/BpSWb+8tIPWRfOMeBvw3h/FzPk+qgZGTMhW2zZTOeN65OM8Ii7Uq7kgEyQAbIQO4ZiBPO9W3jaqhGfyuqjQ84q3Cu3IWeiQjCE73wKzGkBo9z3oRzC37/uephfv39TvQYvMs7Zzvx+79p3ucPutUwAP3+avGbjzXv9OdhLM7W6kKrcW0Cr//tcYesGukeF6vo9ITzOjbur+PWhTUEtHsInvoQ30gBffsNvfyZbVQUzpm1Z4wDnpe2IANkgAyQATJQ+AyYhXPlLvQqk/wiGGisMYsvq3DWP4+jQxHKBSCcd9aiM7wTPeF67NRFsaES/mVK9UbfnsKM6fduPK94lI/g9JOG/bV9Ws8vaCEf1nR06R4Xu0Z6wvlX/PjxU+b62VGNhatfq2Ebmzdx3nR/settr1FSOG/PfpmqB56H9UAGyAAZIANkIB8MmISzzJoRFmnlrMJLF8pa7LP+uYCEs7XM1s9OscpO38vjnX53+j7ZcfL3//uannBex/WzNg3mmU+xocdA2/xuuG56sFE4p2e3bNQFz8m6IANkgAyQATKQawZ04SxCNJQFTULj6PDaVIQulAtfOHf+bhj/7/XH8R+3j1i239p7jtMVwOkeZxCwaQvnZ2zqKMPCWY8RViYEqrHYYilwu81djLZNmQ22sIWfMc5x/yzY2imZHfk77UgGyAAZIANkYNsMKMLZ1zaqi+Zun9f+pEUhnOux74Pf6Jk0ZEaN+FdLyEW6Ajjd4wzgFrJwPt11DI8iJw2bmqVCCGfz9yfxXbYWGqFwtm+PBoYopNMYkNF+5IoMkAEyQAbSYKCisXsiuWgWJ7YK50KcHPiEFsP8P7/B8+ea0GhMaybuwUnoOn0vDer0u9P3yY6Tv//f10IWzvGCjKEa8TahaKNNyAAZIANkgAyUCwPKktuRySG02oVnGARenHA2/qa8N0wOzFMe56E/P656m/9PjyVrhga0k9B1+l7eo9PvTt8nO07+vqMar/afVEIfHvX3uBj5yXR067ieg1CN+EZQXMI5Nduy04uvb9qENiEDZIAMkAEyYGSgIjzaB7/HjVEKf+VAKZzf+aDTVoS2vrLPPsZ5R7rZMdI9LmbvhfbfqjHDU7N42iCojZUUe0/hHLNFzIb237Xgkyk1Hvtec7J9+bu9DWkX2oUMkAEyQAbIgJGBCp+Sg9mdUWTWjcjkIFqNuZpr2zCgpLGLYrJzp61oNV40W++9p8Paqn8H8dRabczrvLMWY+dm8R/XDzosZGLIx/xf+3D0oCWP8+e/0RZVscRG70j3OIO9PdP4bl4IvBP4zG4pc5OYpnB2zY5vEY/ERMb53+IDVwNDQ52YbM7vXducdstb38c6YjslA2SADOSGgYrg+BTstyG0W0MuqnaiaziiLpAyE0U4OIVg0PBZpLFLQYhnvpKb8C/aIifKhMA7IquGzKRxBKd/36fla7YK4Gp4Eq0A+PyezB9nEBlvDqjhGpjej+cS2i/fwjnbUJ7A2pn7eOtlw3Z+Exdf38TF1wzfvXwf/754wlmkVHbhxrTqbX40MKAvEpN53rJtD56fdUYGyAAZIANkoJAYUGOcxRLbcZvMz2ypsEovGlr2YGRiRp1UOBNBaGIU/S1+1CYUfZbzGIRjRg2y04+lK4/hP/Tls3+L/7gewm8UL3KPswDeUQ3vdDd+f/03mtd6De98/hhOv+CHd0d2jtPv2zOGe7Oa0BudxmlHO5a6cD6Dp/+gCWUhlhNsFw6fsRfOlS3466g2EJldxmV6m+3tlK32x/PS3mSADJABMlDCDOh5nHURV8I3W8j3GKjfi5/2quIZ0WP4rDWAp6tyNNgohTqvasKrHQfxU1Sz4ewxfFJP+xUy8ywb+SQDZIAMkIFiY4DCuYBEY6BmGF+FNOG371lwUlsKHUrz0djCLKGDeNcaZlRA9VxsnQTLmwKH5IyeNjJABshASTNA4VyAgB/bOYOvJk/gK2aDcN/4mg9hc/Ig/rqziTHNBcg0xTfFNxkgA2SADJQCAxTOFBnuxSltRVuRATJABsgAGSADZcwAhXMZV34pjPx4D/RgkAEyQAbIABkgA7ligMKZwpkjZzJABsgAGSADZIAMkAEXDFA4uzBSrkYxvA5HzGSADJABMkAGyAAZKFwGKJwpnDnCJANkgAyQATJABsgAGXDBAIWzCyNx5Fe4Iz/WDeuGDJABMkAGyAAZyBUDFM4UzhxhkgEyQAbIABkgA2SADLhggMLZhZFyNYrhdThiJgNkgAyQATJABshA4TJA4UzhzBEmGSADZIAMkAEyQAbIgAsGKJxdGIkjv8Id+bFuWDdkgAyQATJABshArhigcKZwTmGE2YB39xzHow2+s9MAACAASURBVMhJbI7N4rlKNtRcNVReh6yRATJABsgAGcg/AxXjwQgiM1FEZiIITYyiv8WP2mSCqLIOTT0TCCvHRRHpbUpBfOXypr14qfMoNmefBfaZt82e9gItcy7tk+K16vdj02DHe80pHs9BCpkjA2SADJABMkAGipiBCiGaw8EpBHUBHUV4sBP1TuK5phX9E6rYDoc00V2gwvnpruMxwRw9qXhKhbdUbN91tRDcVMGt7MKNKW0AEl3GZQ+FM0f/ZIAMkAEyQAbIQPkwUGEUyNV1HRicFN7nKMbafHHC0tu4B8GQ6p0O9nfAt6tf9VYXpHBuwY1pVeT91NEQdy+EvHwgZ12zrskAGSADZIAMkIFMMBAX41zbNKSK4ZFO1Fs8ko29UUSmJ9DT4FWFqL+QhXM7boSEcH4SN+oJSyZg4TnIERkgA2SADJABMlDODMQJZ09tJ8aU2OV+NFqEc0NTJxqMf8+XmnCubMKbXUexGT1tCPE4jns9Yzhd5dBQmo+q+46MwVPVjg8Gj+PRXi2cYe4EftozidNOYS8W+yYGMYB3bv+Kra1f8fDWeQcPemyfrdtvI5DS+R3uzxLXHIsVP4rLjucfwz0lFlrd53TrQfwU0WwyfxqbY/vxZo3D9RzPmXz/wBNv4OO763j4i2onYautn9fxzd+u4FQw+fH+4SM488I5nHvhDI4M+x1snPw8ieuRx9M+ZIAMkAEyQAaKlYF44ezrQ0gI52Af/MlETIEJ53f3mOOYMa+JNUt8s22Ms6cHn2mhHYo4nD2JR8ZJhU4xvbpwnsUnk4brSfEsBOTULJ5LZksXvwf+9KUinLc2b+K83f6Bt3FbE423/xTIjPCrm8V3Wly4Eh+uDyrcCee/Ni/jkbDBnMWes0czGiO9cOFLbAihLLefH1gE9B1cWkrUUXXi4OlzOPeStv3rIlrtbMzvMsMV7Ug7kgEyQAbIQBEyECec69vG1VCN/lZUJ7uhAhPOl0c04WrI/BDzkJp/s2bVeHPgpOo5jh7FX+u0UJQd1QjWzeC7qHrso4GBeC+uFM5zp7E5OmPwTHvxdNtRVTTuexbf2cSMpz7aeiMmjC/YiMALmrD+5Uu8E7D5PVl9uvld90C7Ec5PYnP6SXy2q0m3m2JPOSAZGMhQp/ECbm2qonnj1tt4yuBdDh5/G7fua4I6oReewjl1HrPEmBsOuU+G2g7rkNyTATJABlJhwCycK3ehV5kcGMFAY03yjrnAhLP5xlOJcR7GPcU7fRJf+eMBCvgPqgJ4fjk+PEEK5/nf4gNjGIv2YH93UAv7GBpObk8XYuD8rQeqV9VGBF7QQjm2br+RkWuZ7anZJSXh/Cx+sslestD2W3WQElnEqy7u2bYcxuMCC1g5toa1Y0sIGr+X71+5iYfCE+3kqdf2Y6hGPPtJbS9tzNfstTnalrYlA2SADBQMAybh7O8OKd7m8HD8xEDbB2ipCOekYlDG7D6JG3UWcSGF89g0FmzADrQaYqBtfre1a6L9XtREYJxXWXqjH+DWK5YyJjpfqr8ltZW4trTXCfuJma7OkcF7eOZTLYzjDi6ler/cv2A6q5TbCuuOdUcGyAAZIAMZZkAXziJEQ1nQJDSODq9L0VKOwtmaoUMKZzE50K5yagP4oHUSHzRkapGYWFiCKY5Zhmls3sSLduXI1HeuRK8Uzg4ZTVydwyWD+n0FsHbhGu7+Yx0PNx+Yt59l7DOFsy2jug1TtTn3pz3JABkgA2SgvBhQhLOvbVQXzd2+WHxvUhgonOFJJpyzIEqe+vgHNVzj7kU9dliGaTz82wv2Aj5T5XAlenMtnJfwzu312MRAOUEw7pXCOWmbzhQnPE922yHtS/uSATJABvLCQEVjt7Z0dmgcKYlmUWEUznkRzp7j1/CjIgrv4JIyCVCGaazj+jNZHvkVonCW4Stb67j7/lksWCdGMlQjL50LRXqW2yIfmuSaDJABMpBzBpQltyOTQ2h1G55hrKRyFM5OMc5OoRpGe2Xs/Ro+/qcafvDN1QV4ZJjGxqc4m7FrODz0C1A4n72ueZsNHniTaKNwznnHYrJ/tpnk+Vm/ZIAMkAEykCMGKsKjffDbZINw9eArFeG8IwNZNXIqnKux8Jev1dCEv1/BJS2bxo8fP5X9hlPIwtkhm8iStNVW4lANZtVwGCzlqDNy1eewLNlv47QxbUwGyAAZcGSgwredVe1KRjhXQ8/jPHMIl2tjcd6u8zjnWDh7Fq7gGyXF2tf4RslT/AM+Pp4D4VOAwllfGGZrHddfWdDjvj2BBZx9/w42/vlDLLTFsTNgHmcK1xy0H0f+eG3yRwbIABkoBgYqguNTsN+G0G5aFrkO7f2WfYMRdbGU6ZDpHIMtdY5KPXdGSSWPczU821450CGrRtYelAu4+neZLeJXbP3zGtYyfq0WfDJuXo3xkb5y4LNQVhKUqwqOz+K0fv1cTw48i+tykRMxmPjlAR7qmTQe4PaFK7grY8L1Mlo7KArn3LVNq+35mbYnA2SADJCB4mBAjXEWS2zHbePoqDXehA8dI3b7xX83lpFV8ozXTud9isJZCKrKJrzZdRSbBnGI6HHc6xkzrAhoKUsesmrIxhXztP6Kb/6ykIXBirShedVF29UYQ/sNy4rnWjhXwxM4hauf/4ANbclxsfT2xj++xNVTQXh2XHQhnKvBUA0L246DDO4n2yBfyQIZIANkoLwY0PM4s+LLq+JZ36xvMkAGyAAZIANkgAykxgCFM71qWfBUpwYhGy3tRQbIABkgA2SADBQDAxTOFM4UzmSADJABMkAGyAAZIAMuGKBwdmGkYhgBsYwcqZMBMkAGyAAZIANkILsMUDhTOHOESQbIABkgA2SADJABMuCCAQpnF0bi6C27ozfal/YlA2SADJABMkAGioEBCmcKZ44wyQAZIANkgAyQATJABlwwUDLCuaOtE9WVNax0F5VeDCM6lpGeBzJABsgAGSADZKDQGKBwptDkYIMMkAEyQAbIABkgA2TABQMUzi6MVGijHZaHI3AyQAbIABkgA2SADOSeAQpnCmeOMMkAGSADZIAMkAEyQAZcMEDh7MJIHNHlfkRHm9PmZIAMkAEyQAbIQKExQOFM4cwRJhkgA2SADJABMkAGyIALBiicXRip0EY7sfI04N09x/EochKbY7N4rpIj05htaAvaggyQATJABsgAGcgsAxXjwQgiM1FEZiIITYyiv8WP2kQCrNKHpq4RpHxclgVqWaajq9+PzX3PAtp2r9ktHF681HkUm7OxY+U5NnvaOeLMMqtKJ1Z1Ao8f/x4XX99Ut9/9mXbPhd15DXJGBsgAGSAD22CgQojmcHAKQV1ARxEe7ES9nXj2dmJkWohsdXN93DYK6HakVJbCubILN6Y08RtdxmWPO+H8dNdxXWwjelLxWAuvtdi+62phg8oyr962qzj3siaYX6NwdtvGuZ+79k070U5kgAyQgewxUGEUyNV1HRicVEXxWJvPLKAqd6J7TP1tOtBmEtYJj8uyCJFwlKVwTsu2LbgxrYrtnzoazHWc1vmyB6es21J67Zm9g7c0sfzWmY8wFfmCHmdyx3ZIBsgAGSADRcJAXIxzbdOQ6lEe6US98SZ8fQgJT3OwD34bb7TjccZzZPE9hbNbAduOGyEhnJ/EjXq3x3C/TIn3x3+3iYuvfY8zk0/AK9pDiMI5U7bledhOyQAZIANkINsMxAlnT20nxpRQjH40GoRubUM3Aj39CDTvtB8VORyX7RuQ5y8b4WyJa5axydh3FJcN9SXtEv+abeEcwDu3f8XW1q94eOu8PSs7Yvts3X4bAVflLo3OYG7fNcztNNxLGsLZP3wEZ144h3MvnMGRYb+DjQ3XKCP7xvNOO9AmZIAMkAEykDkG4oWz0bOcygM33eNSuUaCfctGONfN4jstHlmJS46e1uKVnYXzu3vMccyYl3HR5u8zFeMc+NOXinDe2ryJ83Z1Fngbt39RxfXtPwW2L/ysNjHaJyPvj+GTusw1OlMHlrJw7sTB0+dw7iVt+9dFtNrZmN9tnyvakDYkA2SADJABCwNxwrm+bVwN1ehvRbVlZ9MD3/JbusclOmcqv5WNcLbY3aN7oJ2F8+URTSgbMnDEPNXm3zKTVeONmDC+YCM4L2jC+pcv8U7A5nfrPSb7rNvAfC9O95j691kMa6FwZqecjG/+TkbIABkgAwXDgFk4V+5CrzI5MIKBxhr3hUz3uAyCQOHsLJzNA5Bsh2qoQvj8rQeq19kmFOOCFsqxdfsN94xlkBWzPTIg3LdTtpSFczUYqpHnOttOffNYtnkyQAbIQFEzYBLO/u6Q4m0OD1smBiap5HSPy6SAoXAuLOHsefEmHm79iq04r7L0Rj/ArVcogDg5kAxksh/kucgTGSADZCC7DOjCWYRahMWkwNA4OrzuL5rucZmuWArnAhPOO17ArU2bOGYZprF5Ey8mGZBlmpGCPF8aHueCvA/WZVF7UMiU+2cebUVbkYHyZkARzr62UV00d/u8rh8A6R6XDegonAtNOFfjqY9/UMM17l7UM2fIMI2Hf3vBNWfZ4KVgzknhTA446CADZIAMkIGiYaCisXsiddFc6UVax2URDArnwhPOnuPX8KMI19i6g0vKJEAZprGO689kcMRaVlk1Mmi3LLbHghmY8B6L5mFEZti2yQAZKAYGlCW3I5NDaHUbnlG5E+171FjolI7L8gOMwrkAhfOONXz8TzVc45urC/DIMI2NT3E2kzyUVVYNdqzF0LGyjOSUDJABMlCaDFSER/vg97i8ueom9I5G1AmEqRyXSZHkcC4K50IUztVY+MvXarjG36/gkpZN48ePn6IXTHKcRqgGs2q47K+kjfnK9kYGyAAZIAMZYqDCZ7N8tu0oqbYNg1qqumB/B1wfl6GC2pbJcG4K58IUzp6FK/hGhGtsfo1v7gvv8w/4+DiFj85zysKZC6DotjO0f37HNkUGyAAZIAO5YKAiOD4F+20I7TWGSvD3qwujzEQw7XiMOJfluBw93MpDOLfgk3HLan/6yoHPQllJUK6UNz6L07a2z00e5xi8C7j6dzVcQyzDvfXPa1izLZeBtZL9/QTWztzHWy8btvObuPj6Ji6+Zvju5fv498UTDt4BCucYW+XADO+R9U0GyAAZKCQG1BhnkYYubhtHR62hsnThbLev8TvLcTkSQeUhnKXodbFCXmg/nrO1vTxHFlfDs1xXX4J761d885cFB0FoYM1yfCE1mO2V5Qye/oMmlIVYTrBdOHzG0U4M1SgHVniP22trtB/tRwbIQHYY0PM4F7uBy0M4ZweCYq97lp9ckAEyQAbIABkgA7lggMK5ZL2bbEC5aEC8BjkjA2SADJABMlA+DFA4Uzg7hgSwIyifjoB1zbomA2SADJABMpCcAQpnCmcKZzJABsgAGSADZIAMkAEXDFA4uzASR2DJR2C0EW1EBsgAGSADZIAMlDoDFM4UzhxhkgEyQAbIABkgA2SADLhggMLZhZFKffTE+6OHgAyQATJABsgAGSADyRmgcC4S4cx0e8lhZoOnjcgAGSADZIAMkIFsMkDhTOHMv2aKhIFsdgQ8Nx80ZIAMkAEyQAaSM0DhXCSiiR7n5DCzwdNGZIAMkAEyQAbIQDYZoHCmcKbHuUgYyGZHwHPzQUMGyAAZIANkIDkDFM5FIprocU4OMxs8bUQGyAAZIANkgAxkkwEKZwpnepyLhIFsdgQ8Nx80ZIAMkAEyQAaSM0DhXCSiiR7n5DCzwdNGZIAMkAEyQAbIQDYZqBgPRhCZiSIyE0FoYhT9LX7UVtoZ3YeOEbFf4m2szZcXD2apC8tSv79sQs5z27Vnl99VncDjx7/Hxdc31e13f85L+2YduqyvInEEsD5Zn2SADBQrAxVCCIeDUwjqAjqK8GAn6uPEcx3a+6cQHHfYtOMpnLPTGCics2PXYm24uSi3t+0qzr2sCebXKJxzYXNeg+2cDJABMlDYDFQYBXJ1XQcGJ1WPcioCuNbXjZHpKCKhKfQ21OTFI1XqwrLU748dRWF1FD2zd/CWJpbfOvMRpiJf0ONMb25e+nb2DYXVN7A+WB/lzkBcjHNt05AajjHSiXo3DwpvN8ZCqmgO+L1561hLXViW+v2Ve0MstPt//HebuPja9zgz+QS8oh8IUTgXWh2xPBQwZIAMkIHcMxAnnD21nRhT4pj70ZhMOHs7C0I0C3BKXViW+v0ZG3/giTfw8d11PPzlV2xtadvP6/jmb1dwKmjXSC7irrLfHVzaEcCp97/Ej5uxYze+/RQXngg4DuqCp67g1reW6/3yABt3P8U7J5yPM5a51N7P7buGuZ0GW1M4O/JTanXP+zFwn+wZyN/ZLshA2TEQL5x9fQgJ4Rzsgz8REN5OPTwjn55m2cmXurAs9fuT9bhw4UtsSLEsXn9+YBHQd3Bpyfpgiwnnj967g4fiuF8e4OHPMfG89bPdcdUInP00/nqbD2KCfWsdt87nWTzXzeK7yEk8Srodwyd1Vttk6DOFc9k9HGSb5GuG2lCi5yl/Y/siA0XDQJxwrm8bV0M1+ltR7VSRVU0IiFjo0AR6d+YvPMPYoZe6sCz1+1Pr8gXc0jzFG7fexlMG73Lw+Nu4dV8TwrffRsDEphTO69i4v45bF9b034OnPsQ3UkDffsPSMBfw0bfqOR/+/UOzNzuwhgufr6sCevMmXjRdL8cP0vr92Nz3LJB0exI36rNUNgpnCztZsnM+OeO1WcdkgAyQgaQMmIVz5S70KpMDIxhoTDDJTw/nUNPYTY+MoKdpp0Mau9w8YEpdWJb6/SnCObCAlWNrWDu2hKBd433lpupN3ryJ86bfpXD+FT9+/FQc9AtXv9YFsPm4s7i+oQrnu5dsOE1WHlMZbI4vpd8pnOO4Mg7c+b7E+S+ltsx7YVsmA9tiwCSc/d0hxdscHk4yMbCmA4NaWrppkU1Dy+2sHBeXxi43HWqpC8tSvz9XwuMZGVYhYpmNXEnhvI7rZ43fa+8dj1vDx/9UhfPG9bO6l9pVWUzXt7mmw+/v7nERcrFneFuNOivlp3AuvDpxYCwr9c9rsf7JABkgAwoDunAWIRphIYBD4+jwuhcCopOu9rZhQEtjN929Ky9wlbqwLPX7iz3sA1i7cA13/7GOh5sPzJsMudhKIJyfsWHXUThXY+mSFhOtxFOv48e7d3D3b9dw9b3zOLUUzDjLl0dchFyMjGX8ujH72tjHTWdI4Vx4deKm3rgP640MkAEykFEGFOHsaxvVRXO3L82Y5brdmFSEdz8a8+B1LnVhWer3pwq7JbxzW4srNk4QjHufOeHsscnCoWfy2PoVD7+9hhcNsdbbFqDF2oFROGe04y1bjoqVf5ab/JMBMqAxUNHYPbF90aycbBd6gyJsYxwdtWl6tbYBZqkLy1K/P0VIvKjFMG+t4+77Z7EQsHDk6Dk2hGqk6HE2Cpjg0hrW/u1tXH3/Q1z/7x/UeGoh2v9+BQvbYNN4jbTeM6sGO+x88sdrkz8yQAbIgM6AsuR2ZHIIrcnCM6r9aNrVjCZfnX6wWQRQOJvtYRF924SuHITz2euat/nuRft44ywLZ2v9BeRkxLjQkMzWrfW6cZ+ZVcOhz8lxPWyzDcfVK8/HeiUDZIAMFB0DFeHRPvg9Lh5AdbsRVPI796OxymZ/GaoxM4gWu9+zDEepC8tSvz8hKnThHJc2TuVt6S9adow4IZumx3nhLN55/wquvv8GTlm924LXhQ/xjRImYg0NseE/y3znXXQxVKPoOve8M1PqbYL3xzZBBsqSgQqf63hkHzqGI0oGjek9nWiojokH4+TAUG+Tc/7nLEJW6sKy1O9PPOQDf/pSW3hkHddfWYh5nQMLOPv+HWz88wf8aCtk0xTOgbdxW1udcOPWG1gzimeRx/lWgeRxzmK7cS2uKJzL8gHhmo9CYJRlIKNkgAzkgIGKoJZWLv51CO01MXGsdKA1rXr2DJGCLhycQjCoimnls1vvdRZurNSFZanfn/qAPovrcpETIZBNq/89wO0LVwxLaxvZTFM477Bk1RCTAbVMHrEJgg9w99JSmXVGJ7B25j7eetmwnd/Exdc3cfE1w3cv38e/L54oM9sYueN7CmsyQAbIQLkxoMY4a3mYZT5m9dVhkl+lD01dIxjXBXMEoYlR9Lf4uQBKFgYEEsjyEM7V8ARO4ernP2BD8wQLAbvxjy9x9ZRIDScFsjV0Qn6/jutpTA4MnrqC2yL9neGaQrTHrltuHeMZPP0HTSgLsZxgu3D4DIVzFtu9bP98Lbc2yPsl82SgUBnQ8zgXagHdlqvUhWWp35/beuZ+7EzJABkgA2SADJCBfDFA4Vwk3iIKZ3YS+eokeF2yRwbIABkgA2RAZYDCmcKZf7UXCQPstPjgIgNkgAyQATKQXwYonItENNHjnN+Gwo6K9icDZIAMkAEyQAYonCmc6XEuEgbYYbPDJgNkgAyQATKQXwYonItENNHjnN+Gwo6K9icDZIAMkAEyQAYonCmc6XEuEgbYYbPDJgNkgAyQATKQXwYonItENNHjnN+Gwo6K9icDZIAMkAEyQAYonItEOLOxsrGSATJABsgAGSADZCC/DFA4UzgzVIMMkAEyQAbIABkgA2TABQMUzi6MxNFdfkd3tD/tTwbIABkgA2SADBQCAxTOFM4cYZIBMkAGyAAZIANkgAy4YIDC2YWRCmGEwzJwpE0GyAAZIANkgAyQgfwyQOFM4cwRJhkgA2SADJABMkAGyIALBiicXRiJo7v8ju5of9qfDJABMkAGyAAZKAQGKsaDEURmoojMRBCaGEV/ix+1lalUjhct/eo5Jjt35m20wjzHTnU2hnv7ngVstnvNTsfw+0JonCwDOSQDZIAMkAEyUFgMVAjRHA5OIagL6CjCg52odymea5sGERbCe2w3fC6PyQYEFM5OYA3jq8hJPDJsmFeFNIWzk834fTbaKM9JrsgAGSADZKDYGagwCuTqug4MTgrvcxRjbb7k3mNPKwZCYv8guuvyCwOFs1v7t+NGiMK52Bsuy++Wd+5HVsgAGSADZCBzDMTFONc2DamhGyOdqE8Y/xsL0RhrdyGyE55r+zdE4ezWhhTO7EDcssL9yAoZIANkgAyQASMDccLZU9uJMSXmuR+NCcRurX8PQmK/kW7XYR3GC2f6fVkJ56p2fLDnGDZnDbHLsyfw055JnK5KBnjqwjlYN4nPxo7j0ZzhentPY3NkP971JrjetspZDf/wEZx54RzOvXAGR4b9yf8BScBrpnnj+RLUO+uBrJIBMkAGyECJMhAvnH19qiAO9sHvdNOeZvQHRYjGOLoSCSen47PwfdkIZ88Y7kUNAnb2JB6ZBPRRXPYkEjWpCedA/X5sajHRygTDqIiXPh2bbDh/Ap812Fxv2+XsxMHT53DuJW3710W0ZoEbCmCbuqOd+cAjA2SADJABMmDLQJxwrm8bV0M1+ltRbWs0L5r6ZtQ46AII0ZDCpzyEsw+XRzTROr2IN2tioidQM4DPpjVBPTKGBdu6E/unIpx9+OuYes5HozNmb3ZlE97sf1IV0OFFvGS6XibKSeEs2eZrjHPagrYgA2SADJCBfDJgFs6Vu9CrTA6MYKCxxlZpO4Vo6IK7t8n2uGzfZHkI52HcU7y/x/FJrU3DqZ3FTyLt3PwyLpuErHHfVIRzkn0rfTha04RjNQ0Imq6XiXIyVCPbbYbnN7YLvicPZIAMkAEykJwBk3D2d4cUT3J42GFiYIIQDQrn5MbeNpAibELJx3zUQRjLnM1P4ka9U3mSiGGTAG7CJ5Oqx3mztwsB029O56+GJyPlTHB+t+XgfnkZxG6bc9Yb640MkAEyQAYKlAFdOAvhq+RjDo2jwzZuOXGIBoVzDoSeLkifNeVljuVolrHHmRLO1Xi8+SgeycVTxATE0WXcC8zig+YATnu89g07I+XMgT0LtFFSeLLuyQAZIANkgAwUJgOKcPa1jeqiudvnIIZ2NCGgZNvYgyabhU4onHNQwQZBarcSYOy7zAln0XBPtx7ETxHDhEQppPc9i0fjs3jJmskjI+XMgT0pnO0HPrQL7UIGyAAZIANkwJaBisbuCReiWYgYKZwjmB6fQtC6yZUHGeNsa+iMjBx1QeoUquFGbKYSqmE+X9DThGO+AXzQOoMbQ8fxSGbbGJ02T0bMSDnN186I/dgJZI9N2pa2JQNkgAyQgTJgQFlyOzI5hFbb8AyjeJHCWV1ZUKwuaLtROGev4WREkKYvnK3iNdCwqIVxWIR8RsppZI/vrbbnZzJBBsgAGSADZCD3DFSER/vgT5j3112hGKrhzk7bg1xmqziJr/x21/PicdssF8Z9UxDOni682zqJD1oHcNomPMfjmcZ3tpMVM1FOZtXYHivGOud72pIMkAEyQAbIQCYYqPDZCaI0XO0UzrkA0pAfefa3+GudIR5drNI3dELNqxzaj+cS1OHlES0388gYHk+wn6dyGF9pqwVu9g/gmJEVt3mc0y4n8zhnooHzHLlol7wGOSMDZIAMlAsDFXGxynrs8hDaDQtsJDMIhXOOGk2yFfn2Hk+Qik4to2k1wL2nzRk6xmdx2iCmTVk1xGTAiGXlwH0nca+5IT48ZdvlpHBO1ub4e47anKE90Oa0ORkgA2SgvBlQY5xt45XH0WG3yIbDQ4TCOYcgCe/ynmPYNC21fQI/7Zk0r+7nUFei0T/un8W9KZm+zpAxw8ZbHaybxFeTJ/Bor2G/vaexOXkQHxi93tbrbbOc/uEjOPPCOZx74QyODPvjxbn1evxMG5EBMkAGyAAZIANZZEDP41zsI6jyWDkwh+I8i9AVO2ssPzkkA2SADJABMlCeDFA4UyByZEoGyAAZIANkgAyQATLgggEKZxdG4qiyPEeVrHfWOxkgA2SADJABMmBkgMKZwpkjTDJABsgAGSADZIAMkAEXDFA4uzCScaTB9xx5kgEyQAbIABkgi0T2wgAAIABJREFUA2SgPBmgcKZw5giTDJABMkAGyAAZIANkwAUDFM4ujMRRZXmOKlnvrHcyQAbIABkgA2TAyACFc5EIZ6bbY8M1Nly+Jw9kgAyQATJABnLPAIUzhTP/mikSBthB5r6DpM1pczJABsgAGTAyQOFcJKKJHmc2XGPD5XvyQAbIABkgA2Qg9wxQOFM40+NcJAywg8x9B0mb0+ZkgAyQATJgZIDCuUhEEz3ObLjGhsv35IEMkAEyQAbIQO4ZoHCmcKbHuUgYYAeZ+w6SNqfNyQAZIANkwMgAhXORiCZ6nNlwjQ2X78kDGSADZIAMkIHcM1AxHowgMhNFZCaC0MQo+lv8qK20L0hjr9gv8TbW5suLB7PUhWWp3x8bv32by7tdqk7g8ePf4+Lrm+r2uz/npX3n3Q5FMsCmnQq0HZEf9htkoGQYqBBCOBycQlAX0FGEBztRHyee69AxrIpmZf/xKQRttsGWurwYp9SFZanfHx/4hffA97ZdxbmXNcH8GoUzGS08RlknrBMyQAZyzUCFUSBX13VgcFIVx/GeYx86RtTfAv7Cq6hSF5alfn+5Bp/XS9yGe2bv4C1NLL915iNMRb6gx5keo7w4RdhWE7dV2of2IQO5ZSAuxrm2aUgNxxjpRL3pQUHhnE84KZxz2zDyWdeFcO3Hf7eJi699jzOTT8Ar+oEQhXMh1AvLwH6ADJABMpBfBuKEs6e2E2NKHHM/GimcC8bDUk7COfDEG/j47joe/vIrtra07ed1fPO3KzgVtGswF3FX2e8OLu0I4NT7X+LHzdixG99+igtPBBzrMnjqCm59a7neLw+wcfdTvHPC+bjtd15juLfvWWDfUVw2tTW7e8ztd3P7rmFup+GaFM6O/GyfA4OdC4wD3hvrhgyQATJgZiBeOPv6EBLCOdgHv6kTlx7nKXTXmU9SCEYtdWFZ6vcnGVq48CU2pFgWrz8/sAjoO7i0ZOUvJpw/eu8OHorjfnmAhz/HxPPWz3bHVSNw9tP4620+iAn2rXXcOp8t8exSONfN4rvISTxKuh3DJ9lqmxTOFM6m54G1DfKz7MP4ShbIQGkzECec69vG1VCN/lZUmzpKKZzH0VFbjVpfB/qH5ATBCQx3tcFXnT9jlbqwLPX7UzuaF3BL8xRv3HobTxm8y8Hjb+PWfU0I334bARObUjivY+P+Om5dWNN/D576EN9IAX37DYv4WcBH36rnfPj3D83e7MAaLny+rgrozZt40XS9THHuUjjX78em4pkW3ulE25O4UZ+pslnOQ+FsYcdin6zwwWtQgJABMkAGCo0Bs3Cu3IVeZXJgBAONNZYHRUw493QMImyXlm5yCK21+ankUheWpX5/SsMILGDl2BrWji0haCdEXrmpepM3b+K86XcpnH/Fjx8/ZeG2GgtXv9YFsPm4s7i+oQrnu5dsuE1WHlMZbI5P+rtL4Zz0POlcO8VjKJzjuCq0zpzlSZHpQmhXLAPbFRkoOgZMwtnfHVK8zeFh68RA0SFJ4RxFZHIQ7fVa2rnKGnh9nXo2jvBgmzqZKMcwlLqwLPX7c/XQf0aGVYhYZuNDUgrndVw/a/xee+943Bo+/qcqnDeun9W91K7KYrq+zTVd/U7hnDtbp1tHPI51RAbIABkgAzEGdOEsQjQUL3JoHB3e2A5GY1V7vKit9tovkFK3G5OKF3oErXkI2Sh1YVnq9xfjLIC1C9dw9x/reLj5wLzJkIutBML5GRt2HYVzNZYuaTHRSjz1On68ewd3/3YNV987j1NLwYyOhJ/reTJJqEUsDGOzpz2j147Z18Y+bkQ+Pc6FVR9u6oz7sM7IABkgAxlnQBHOvrZRXTR3+7xpXqQJAUU4qzHQ235Qp1jZpS4sS/3+VF6W8M5tLa7YOEEw7n3mhLPHJguHnslj61c8/PYaXjTEWm+H69NdxywT/E7rQto68e+7rpY022GawjhZe6NwLqz6SFZf/J31RQbIABnICgMVjd0TGRDN4mEthXMU+VggpdSFZanfnyJIX9RimLfWcff9s1gIWESgo+fYEKqRosfZKISDS2tY+7e3cfX9D3H9v39Q46mFaP/7FSxkpQNyGarBrBpZ6fyMdc/3lraWFd55DXJGBshA8TOgLLkdEZP6HMIz3FeyFM4T6Nr2uVI3bKkLy1K/P8HZ2euat/nuRft44ywLZyvrATkZMS40JHU+redWP7sUzsyqQeFMIUsGyAAZIAMFwUBFeLQPfo8LIeDtxPC4SD/Xj6Yqm/293YxxziLUZSWc49LGqbwt/UXLjhEnZNP0OC+cxTvvX8HV99/AKat3W9Tlwof4RgkTsYaG2PCfVt27FM5pnTtTZdTOw1CNguiw7QdgGa7rQuCNZSBvZIAMFCgDFb5Kt53uTnSNRZWsG9N7OtFgnABY3YTe0YiakSNgzf/s9vzb26/UhWWp358QBIE/faktPLKO668sxLzOgQWcff8ONv75A360FbJpCufA27itrU64cesNrBnFs8jjfKtA8jgXQudB4cyHWCFwyDKQQzJABvLMQEVQ8SLLhUyMr0Nor7GIWW8nRqZV8RyZiSIcnEIwqApm5fNEPxrdeK+zcNOlLixL/f5UT9pZXJeLnAiBbFr97wFuX7hiWFrbyGaawnmHJauGmAyoZfKITRB8gLuXlsqsozqBtTP38dbLhu38Ji6+vomLrxm+e/k+/n3xRJnZxsgd39MDTgbIABkoNwbUGGe7xUxmHLJjeHaitWsE47pgjiA0MYr+tibUu/ZeZx60UheWpX5/esMLnMLVz3/AhuYJFgJ24x9f4uopkRpOCmRr6IT8fh3X05gcGDx1BbdF+jvDNYVoj10387zq95uFQeT2z30GT/9BE8pCLCfYLhw+Q+FckHVYbszyfrff7mlD2pAMuGFAz+PsZudC3qfUhWWp318hs8WysTMlA2SADJABMkAGBAMUzkXiLaJwZoNlp00GyAAZIANkgAzklwEKZwpn/tVeJAyws8xvZ0n70/5kgAyQATJA4VwkookeZzZWdthkgAyQATJABshAfhmgcKZwpse5SBhgZ5nfzpL2p/3JABkgA2SAwrlIRBM9zmys7LDJABkgA2SADJCB/DJA4UzhTI9zkTDAzjK/nSXtT/uTATJABsgAhTNFE4UzGSADZIAMkAEyQAbIgAsGKJxdGIkjTI4wyQAZIANkgAyQATJABiicKZw5wiQDZIAMkAEyQAbIABlwwQCFswsjcYTJESYZIANkgAyQATJABsgAhTOFM0eY5cxAZS28Xh+8nkSdoQ8Nfh/qq2u3zUp9Yy96unrRUpfoeln8rb4RTcnuo74ZLfXbv9dsPGBranyor0lctnpfM+q9dagpZ65579tuq9ngl+fMYt9G5nPGPIUzYcsZbLnsNGt8AUQPzmOPVaBV1aHe60txKzAR0jCA+UOrWF1ZxeIef2r1V+XHrnpD590RVc4z1xMTY96mDjRVGfZpC2F5ZRVLY60urlWHltFFrCyMYFel4RxKO2vE2GOi3AvY47X+lovPjRheFNdfwoTf6Xo+7JkX+yxjutVpn1S+r0N38AAOHzyM+UCKdbWjFg0NhmMqdyN6ZBWr0UBMFFe3ot0fqztPZRemD69i9cAEWuLsn0q5uW8u+ytei7yRgeJhgMKZwtmFGCoeoNXOpxY9EVVYrloE3K7BA4pQFKLT9TY/gHorJ40TOJzKOeL2nUMgoZfX3uY1/hEsLhvKnopAqglgThy7OIJd2v20jB02CVlvR1QRycszu+FV9tGE5JE5BKrty2Tq8CsbMbygli92Du047wAWhB0M1zcda7Vxhj/XBxaUOj8w3OjIfI28/6mumDhNuxx16J5ZjnEW6U3hnHUIRFewunIAwzs1+2nMLQR8avmrdyMqBlCHouiuUfeR9zjXU+d4j7m0Oa/los2kzRfPTb7IQD4YqBgPRhCZiSIyE0FoYhT9LX7UuvVUeFoxEBLHRjHWrnXmeeoEynOBEE3UHA6h3WB39eG5jOm2Mm5U1QHMCe+c8MoOxoSSDBUQ4QJJt3FVaC3ZCa261uTH215jDPO/SU88NvREcVjc0/Iihv3NzgLVwIK5U4kNKFRhpXlgD06gZUc16rs00RwJoEH2Aa2peJs13naOYNHO9ppwPezKc21gt8qP7sEoFg8uY0UbgKwcOoC50a5YOR3vWTuP5GFxzMYTru1T2YFpIUQPR9HjZpCQ8Jp16JxcUvhbnpvHAaXcBhGc8Fi1PDW751TRHQ0ogxh10HcYE43V8Hh7NdE8h4D8B0GWP5XBlItymBky1AuP5eCEDJCBMmSgQojecHAKQV1ARxEe7ES9fHA6GqUGjT0hVXSP7YYv6f7Z7XDLUjhrHrzlyQ5D47UX0+X48JPet9WVRQz7UudPFSqZ+steu75vBIsrq0hJPFb5EQgLz/AqVpfC6JFhDg32AjVhXTdOYGn5AKY7fPB4AphbWYXCT/0QFo6s4vBUr6HtS5ai6E7RO+7VRPjh2QHNu12LQFQMZDTh59ivWOrJEJYi7n/l0GEcFgMPTUBb/1Ew3XtlK/ZMhRGeCmNeCRFZxeF96mfxnbLt6dC9wC1jqtBdXV5WQitEeEXcFh1AQ7KyV/rQo3mal+cGsKuyNuZ51kSwqZxO56tsxcSBFRwI7kb9Ds1+yiDZj8F9FhbEwEcZmCwj2mEI3XA6N7839JkW5mgb2oYMkIEEDFQYBXJ1XQcGJzUPclsSD7KvD9OKpzqE3jREiasHR4KCW48vR+EsH5SmWExbMV2mDwYhPBYPIJjWvyGaaFyJosdmUFhTnWqctLp/Q/+8IvqiHe7qpL5lQg/NODw7ZI493lENGVqheNbHWrXwikTnrkWNjF+2xDd7fX7T8d4ezeMpRarNq603Xmm3dWhpbdZFqRTpq5p329p+bT97uhDWYrmXpnqxyyDeFbtoXu253Q5C0UU4jT6AEQMKm/vTBbr2m76/U99U3YqJ/SLEYhWqaNbqYueI5nVeRrTLfRhFTZV2b9b45mo/GoxecelRT3QPj43pITq29na6J35PEUEGyAAZ0BmIi3GubRpSvcgjnfFxndJwlT50jagCO9TXjFr5fR5fy084S2+gOUyjRhE7ZR6mkQkOpVCxi2/eIUW1wfOZSLDE/ZY8vrnG14vgPs3LfGQJ4d3+mAi13N+uwLwSlyzE2spiCD0+q5CUk+LclfeACG2p7kVUTDJ7bF71zEoP7dSCKjAPLSI6FcaeXdXwVPrRbhuWEguHCQTV2PKV2TEXIS5dikhuGtU8wA5e2s6gFj881aV3aEZBKOPZ7QYpamy39m+CMVbYKEYNdu6cErZL/O9DjX9In7S5NNll8Nyr4ln3aB9ZxHCD8+BGltsq2m0/K/HidegJL2P1yBLm9XpSPeoLB9RyL4bDCPc129rJaDO+d64X2oa2IQNkQDAQJ5w9tZ0YUzzJ/Wg0PDiMwHibRxAW+4QG0WLwAhn3yfX7shPO8m/2oFE0xP7O7bTxkqZbJ+2TqkBRBEh9FyaiS1jRvH0rBxcQ7DLM/Lcy421GYGIBBw6pXjhF3B1YQDCBEBTlrN8VQHD+AJaNE+F+s4SFiV40SI+p9VqZ/Cxje+3im3f40JJEKNrHTyePb67x7cZE9LAey3t4dgTtMjQjwf3Vd4XV+GdFpK/gwMwQ2uukgLaWN4CxWU2UH4xi0HIvLXWxgUG43dJRygwbowYR5sKzayv64gYUmrBXwhHq0Dmsir89IqbX5t53DWsxxKZQJbmvDA2xy+Ah708MYOQEPhHi4OQJbsXEwVWsHomi265dVfrQPigHL8uY7zd42o3lNkycVOLUHcSzNQ4/MDyvTUQ9jOie2GBEYazRp4VorGLVOoAwZNhoMpaD7215smOM38n2xFeyQAYkA/HC2deHkBDFwT747TpYfUJgBGOtScI57I7P0nflIZxlOi93nsPVcG8GHhBSZCxhbLcWUytiQJdiQlh44sLtUqTFGpe3LYQlTWCvrqxg+eBhXXALIWWctCeBFK+7BhdjMawy3tQgvJW41jiOfOgcscSvBgNIVzDkNr65FvWNgZiHWXiOD85huCV5+1Ly+sqcvfW9mF401ssqFqwp0KpbMSxFs7jOXBTR6IgpBCRm//jJbKqXdxGDhjR/NTs7EnuRR+bVgcBiCAGLSDcNMLTJmKszu11wK7lchTGVns6R/MfALoOHNuhcnR9Cp8aaE4vK+WSYhTENnMaf+GdAt/nSPAaNqeHiGK2GR3q3xaBB/JOQaNC5ow4tg/OxAdHyPKIzcxg2XsMQ5678U2C8pjbIWexPzpFuN+PxfO+Cw1h/RxvSFmSgPBiIE871beNqqEZ/K6ptOk5/tzYhcKQ77q/IfEJTHsK5C0FtwpLq8VXFqD6BSZs0pUygOngYi4MGr6BNXbqrrw41L+zKARxYWMREqy8WMuBpxpiWesyUW1Zcq25AmWymiIPdjajRPXW1aOid00ILbLyBUqQcWcSERTjW+AYwJ8IH7CaYSaFk9GJahc6uAUvYgUVoG/7mVv/iNsQ3e9LJ/2yOg5bxzXN9/lgeaWUxCx8G96uDISGYJzpEWIYPgYiYnBZFQEs1Fl9fWt2Y4oZr0bA7iIWlVZjTwYnvQzggPPhLUQT2qPmbRZ0q3uDHQuisjmXWUD3EhvsXderpVTOV2IavOHWYMpNH8vAh6UG2FcJWfuuGlEmWq0fm0GP3r5fmBTdPnNXKqP2bIOKV61tGEJ3YDa81v7XhenKSqZ4GTrFFI3qCB/R/BkQMtvmfEOnxXkVcqEh9AHNa7Laws92/CrogP3IY0d4hNX/z4qKareTIEqbb6mKZNTTmo13GOpB2t2ljhnuLZ8p4Dr6nfcgAGSADVgbMwrlyF3qVyYERDDTWxI+2qzswooRxBBFo343hcS2V3XQII70d5skqOe6cy0M4awDLv2AteWEVb6CTkEi3PqR3bsVhUpM2wcyam1fGn9p7u2Kec2soQMOAKuSWTSEosYYrJ+V5reEa2gp4yuImXWFF0Fg9cGpcq0tvvRAjBoHYPZPCcUbxnuS9FHY1rQEEGo2DEjXjhdWupgasDTLkOUy/ifrWBiv1LUOIKp5okaGhV0nhFsvfXIeWMSmegwgML0J49MfC4n6j6DZwU98v9ksugE3lkAMhO8+v4dwePW7cjdDTYnoTLMoi44TjROuOapjim0UZfAE1NtlQ37F7kAJY876L1HijBi/w0rz9PwP6QM4hnr26C9Napg91kHIYEyJe3NuBwRlVkCvx6iLVnCF/s7dpQhfPwd4xLIp46WF1EGS6V21g4dSOYvcXa1v8jrYgA2SADCRnwCScpTc5PGw/MVD+HglFEA5FMD0+heB4SI13VmKex9HhIh4zGxVTTsK5RsvvanpQSm+gRUxv29YyftXk1TSA1TCmThYzCSMtJtRxhTg5WS0+NZkUPMvbWIBCFUbWc2t/7R8Jo9Mk2Az3Ir+3iW9WQyLMHuT4FQj92KOkXBN5lpPtq/7utNS1rGOr+DfWp7RVon28fWoWD+HJjoURaPbXsyyIOF/1H4qaSjXrhjpQMAhnOVg7MJFC+ItYxEMI8FiKtIaugOLZNt6H8l4O0Ewc2dSNMZTHMV+xFLs2McFdAUwrqwcaBK2S9k0dGMVl6JACWPLv17JvHDmM+cEO53/dZLtJdD+VPnROqCJZCRWpGcC8GGgtH8acIU5arecljGkx0SKTyuH9anhNjacWHm3wauwP1IFrohUS7W0bVy+yTfA13pFEm9AmZKAsGdCFswjRUCf8OYhf4Y0Oqpk0RJ5nU97myp3oGNS8z4mycWQRsvIRzpooOByCcQKgKrRS9Aa6qY8u1ZvlGC8twx+MM/alCNLimvVQEj0vrlzIwiBeZFk00Sq8cCuHFjE3FcZEfy96WpsR52WWx5hepUC2TOSSZbKGb5iOTSImKhuxZ+4w7DImqIJDDhisol07rzKJbA5ze2ILstgLFfk3uzmW2LyvHHysIpFw9ng6EDBMxPR2hLF0QMTiJr5Xq3CWIj1OWCawn8zlLD33uwa0VRstqzmK+1KzwSTLb23wjh+KxvJZW8sgxW4ib7/FuyzDMeKWqtZ4jHn1fejuN6fGM9eLaldpr6Tp68S91/m0NIC1aO8xhHxU70b4wJIy2dDuGvp3VuEsvfyZHkRb7czPZSkadO5Y/6z/MmVAEc6+tlFdNHf7vPYw1O1GUPEqO2TS0CcNjqOjNvFDORsNr2yEs/wL1pRJQBOLFjGdCTvLuFPnfL02dS29bYmEi/hNevEsja+hK4QDxkUu5HmOrGBhNEmuYieBrAmgxYEEGUAs5bDaz7TctYgJtv67IgWLCCEwZp0QWUJaRjC/pIV7HAonXlBExu+KFfzqHCZ2Sc/nSiLhXAuv1+D5bhR/7a9iRSxKYvxeeV8Xi13fUQ1VOGvhCTJHcCLvqdV2chKcCCWQS0ZXNmJM8fauYsmyeqB6vQTp3qqaMTinpZ87ZFgtz3pd8Vnjb3lqdyyWXN6vFsYTJ2ilR31FTDaMZdeQ4T1Gb66Vi/jP0uNtE99sV17tOxmGpP6T0arOH1iex54GQx1q92EaRGrCWR1ASS9//MTO+HLatN0E5ePxtBcZIANkoBoVjd0TyUWz6Ez9/eqkwcE2h7zNXrQOqh7pQBJvVjYMX+rCWaaEU+MhNQEmBaX11U04gssHZI8S6+qQucDhHNJ7GJcey2F/Jx4UIeFrRWfXkCHjRAJxJc6vCWSrF9Y+fCONTtBriE1dXsRYYyybiH7foj4Oa6vteTtiWSyS/b2v2UfGhy8fEkJxSV1i2WQ7w0p04lpOWSjkIMLKh91nPWxDtYmat3gV4XYpxOzK4WQ/eYxN5pSGMX0hkFgmFm2So0O6txpfAFFt0LGyfwItDrmWJUfS22snduPimw121fNG6wME6dW3+WfEcJy8rv6qe7xTOS4mtpO38VjYhnLN9rA6wXOqC3LRGuvARC9bonLzN3unEe1Cu5ABMmBgQFlyOzI5hFar98ywk9LpUjjnEZxadE+py/8q2TSOrJiXApbZNJa0JYJnXSwLbK1f289SODiEHtgeI9LJqX/JW8Xr9h7eMWGR6Lz2AlmGb7iIb1buyYf2nt1oqo6JYlPZpfdzYSyWxq2yGqrYXEQ0rOUXXjygphI7ok3Ks05otLOfFJbzA+jUJkrGhQ/ISYHBEKJCBC+M2C8D7W1Gt0j/tnsCC4KRQ3MYtqaDG12wnUgpQxdU8R7vITbZw3Ifejo7SziEPEZdCGQFB0ZbVS+3DM+JC6MRGViiejo25xAZo4CXnNhNMtQ4WHEQtHUDCIvJk7KetFU4ZaiJLH/SV/mPiy7AjeVzeu9DU6eao3liXqQUXMbcoCVns6xH63llOQ8vY1mkf3SM/Xa6Nr9PWqcWxrk/mSED5ctARXi0D367dE7WjqK6DcOJQjX0jBvj6HBMn5U9Q5e6x1lppNoEQPNMeS0eNgthGp4du1Vh5iQ0rIxon+Xf27G4UHO9y4l2pr+bd9RiV5sqFFoMOYJjnZMURKswp90ynlsK5G3GN8tQiUQT4SrrUL+rA4Ojc0pYSbRDi28W4See3eqqe0LUHrAJ6XCwm0dfIOOAOhHMMGntgFyIRe5zZA6BapmdxEEIiutU+tAzI1aVs1mtztuLqEiLZhNzLMMdFO+n3e8O97BrYFFN0XYoim4nz3BlKzoNy6BLXkxp6MTgROabFunXDPvHmDDWvfZeenut4lKUV3rgHQS99bzyH4REAzXrMeKzHDjGhYM42Mx4jvquqJKqMS6vdKJ63CFj60VuaJt6dnFdYxn43oYr2jCPjiPWB9tkYTFQYZrkl7BzqEFj74wSrhEe3g2/8aFY24zAqDo5MNzf6hDKkd0bLwfhrKcDazXYUsY8O6Rv21aDkzG7DrHITueWGSHEQ9yUi7nKsMLaoRDa9dzO6v2oca6rWBaxvdLrJ5isrMUumfs5Ubo9KYyk51JMxmtq1MM33MY3q3ZeRXwqvVp4/bsxLJadNsRgrxxYwGDXiJpXWFu9TWQ+WNZCIuJz/BrqT29zcgU7c3hDjTzPkXns8cYWh5E5haXNnCbtNQTmtUVntNUE5T9LMpfwUthW4EoBJ4TzfG8s5tepzsX3+tLfh0Rcrt092n0nRZ/BQ7xzQI8H11Oy6XayO4fhOxnfbJoDoP2uebbdCVo5QTPVWGHDAK/DUC435a8fwLz892gxikGZx7zSj0BEDH4OI2y3uqEcAAne5gLaRMMUr+2mfNyH4pEMkAEygIqgklJOpJWzbkNot3qOPbvQqwnkyEwU4eAUgkEtm4b4PNGPRjfe6ywYvvSFsxY2YfGCqt6tLKWdkjmapRB1W2/SK6oJx9XfHDavNOgkrFqD+t/yQrCtKKEnMgOH8KY5CAdZLi3WU3gI5WQ88d4+fMNJWDRj4oC4lrawRlUdmlqHMBFdNC3/vfK/5jDR34FdGu/SO2n0mupCUthh+QCme1tRbxwQyHIbU6zFeXd9GJxfQnh3I5q0Ve6MC5vog5REf88b46xXVnAgOq+u6KgtemIVw6Zyi7In8h4r92DIdrGcosezUUvvtn8I9Zo9ZC5vudpkfFYWLSTpoDmzjCLetTChVOObrTbwSM91ioNG/bgU/6XRr68t331YLmm/OId5ke9ZLnpiYEY5pmFAzUEt25qS+s/dQEe/pvWc/ExxRAbIABlwZECNcRYhGHGbQ3aMSi8aWvZgZGJGy98cQWhiFP0tftRaPIi57JhLXjhrAsPsBdVEnkF0ZNLmUsC489BZhGiVHz0TCzigL5UtVjlcRHRwt9mbbGmcYsW04PySaWluIbwXZ0bQ7XOIOdbOIf/yX146rEyWWlmMomenjGudR8D4L4nlutJu9b1zyrHK5KqqXszpgmQFy/vnMNHbigabwaHq+V3EsM9sB2XBCrFanzzPkRUszYfQo+9nEJ0OQlaEW3ROqnEfItNcAAAgAElEQVTTcWEVhmwQB0aaTZkx5D2pr7VQvM+yHCvLWJw0xPMKe1T60TOlXWcpjB5frx5yovwLYNe+xRLebrNdWG1e3YoJbeVJo8dcTkzUbaaX2WBH8Z1lQqNnR8zb63xsgrAWQ/lkjHfK7KcV32xmRtSXWCVTep/FvSwvCGbM/Dd0hdUBkBhQdvnVkBxhl2RZRwz3aWYkvhz8nTYhA2SADJgZ0PM4F7thSl4482HnOPpT2PUG1OWghXAQ3l09d7Gc4LiK5f3RhEtuR/epgjvmYW3GcDSK4S6LWJbLb4vJg5W1aGjVVnOz/Bugtylltbk5HNYEtO4xFp5gKTodRLO+9LLwwGuLXujn1ZiQIk8IrLgJdCLMpWME0f8lJpyJ5bbnMTGoCS7x+Tdz6KkRQq0XYW0lu+W5IX3SozHkxPi9EKn6Et5K2ZyzXXROqPm4w1NhBAcD6OkdQTC8EG+P7TIuvcTLy+bJsyJ/+JJ2/6b45mYlJ3NPVxdafDLlW7OyMqASZnNkAXts4+3NnaixPrYT3yzOU9OwG8Ni5UDhcRZZWEZH9HoRHvi5rjp4xKBUDnAOiZzcmqCWKQAV8Wz4frt25fGJ+x7ah/YhA2XFAIUzgS8J4GUqscNhS3y0MQxCCIok28r/CsbnZ7YwIj3b5nMtI5ZezUFYCRHb2KzGoDaM4ID2d7xZkGrHehoRCKqrygnBdGCiy3mVuh2x+GiRjSHc2YzO/glEDZ77lYMLCO5uRI30GivhGwcQ3t2KHv06y5gfjM+TrWfJWFnF4dBueKtaMaEs4S3suYLF0QQr6O3wY1jzKpvtpR4rlwA3is+032veXlsvsW18s5z8asNFsrAgCxNqmWMeb7tQEfv7EpNihzARNsTNLx/GwoRhkRUtfOPAVC9adodwQA7A5kbiU/M1jKhLcgvORfy6NdzOttwOvHLfkugb7bljndMuZCBdBiic+XAojYdDXRd65GQqmzo1Ly4hvYvmV3OWD+dOpakvjHB0UfNqLmJuInkYiV0DbR9bMHjGLdfT4sTFUtnDCe5LP68SzrGgTh6TkySFAJsaQXeD+S9+/RhhJ81LqUzCs4QCxPZTw0lW9PhrNU9z4mPk/cSypfQYU+G1W7z4NnUWu748V+JXb9uY8o/Cnsb4/erbtd92GX6r6cLYVDjuX4jg4G49dj2lMkiPd0rxzVJsr+DwfBjDHYbBTZxNtAGS6R8Vw/1o+6vhQSnGmsddK/68KdmC5yuNfpX1yHokA3EMUDgTijgo+IAsENFQVZsgZjlxGWucclDb8O6t87m7jvRWi3Nso2zky1J3nrrYPwE29WOyV7XPcYKpaT9jXSU7J39nH0gGyAAZcM0AhTNhcQ2L6cFMu9FuZIAMkAEyQAbIQJkxQOFcZhVO8Wvx9rH+2emTATJABsgAGSADLhmgcHZpKApOCk4yQAbIABkgA2SADJQ3AyUjnAlyeYPM+mf9kwEyQAbIABkgA9lmoGSEM/M4s7Fku7Hw/GSMDJABMkAGyEB5M0DhzFANxjWRATJABsgAGSADZIAMuGCAwtmFkTi6LO/RJeuf9U8GyAAZIANkgAwIBiicKZw5wiQDZIAMkAEyQAbIABlwwQCFswsjcZTJUWYpMhDwdOFyzzI+8bN+C7Z+/bO41zOG5zyso4KtIz5DKLbIQFkxQOFM4MsKeD58q+GpbMKbPcfwaP5ZYN+zuNdMUVawXDQfVeoI8yfxXc8AjnFFQPZXfGaRATKQVwYonAlgXgEsWMFSqlxU9eDGlCqYsfdJ3OuZxEv0ZhZuG/B04YOeo9jcq9XZ1F48R/FcuPVVqv0G74vMkQGdgYrxYASRmSgiMxGEJkbR3+JHrV3H7O/X9hP7Jt4Cefjrl+no6DUsDxHehKdureG9/3kcTx1Ktc7bcWNaCrD9eKkq1eO5f94YMw54JmfxNB9i+kMsb3XCOmAdkIGyZKBCiOBwcApBXUBHER7sRL1VPEvhHJpBcHzKdpueVgU1hTMFBh9m2WIgfeH8dNdx9W//8CJetbZvPgAK/wFQ2YPPwurA56eulsIv7//f3vf/tnFc+/rvsUxKFClRkvVdpkRZX2mJkkzRshJeRmYsywybZ6NB0iSF0/YayX1Ne4OXti9JcxvfIkgCAzZ6kbZ4SFAgxisSGPGLkdTwTdEE7U2DxjBgOEESGPi8OztzlrO7s8slJVmydH4gllzul5kzn9n9nDOfOcOY4jZiDDAGdiAG9ugEOdraj/FZSX4zvQlngxNxnhpA3GSIpg4MW+dmMRjbLNLgf12OOPvbhknsTrJNg8S5aRIfLQnS9RQ+6tpJ9thddUl3HZfOz9Jx/JqdH+c7yvRe4n1sI8YAY2CDMeDROLd0TUgphpsg1yDO0c5x5ISEY7wfsQ0uZBjix8R5dxGIMJjYmcc0SJw7FeHKFfGTLeifO7MttqLPpfD+onKAOrfi/nxPxjJjgDGwuzHgIc6RlgFkLA3zKDr1F2w0ia6O/ehqTyCq77e+t6JvXESqFzHW2bwl3s2uIc6vX8OdO9/izvXXEMmewcU/3cBX33wr931zA59fuYAzaR9Qi+OvfIabX6rjxXW+VOdkfc7ZG0X2zAVc/lS7jzjvm9u4ef0dnHsivYntncHH9wmS8BDe8GDOv7x366HWdmwE//zuQ3j1P4Xm+BTOvXsU3300jsjeFJ6x9h1FyVTu3iROXHgAL3z4sH3uqx8+iOcujGCi11uv0u/k9ek+QdtnnvGeL+zx9PATMlI5Nha6vdLfeRFvX3e1+5c38Mm7F3DGiJfXcF1g4841vL43jTPnP8Dnt6pYu/npO3jpO/542bk4W59d3Hj+5dhTVlveGh4M3Zbua/Bvcz9hu7BdGAOMgVoY8BLnxAgWBHHOjiBpeumb9sWGMEvnbNHw4e4jzm/h7b8rUvLl7Sp5FsTl72/hrLudSq/huoMw38ZXjt/X8HrJ22HSZ9/BTYsMafe6dVsSdWv/DVx+3p8M1QJg8P8hiXPrEfx18fv4uubnNP7Q6q1jcBnMx8eeXMDLijBbRPbDkzh3TRDch/DPT474E+dMCs9c1YjwhyfxsoNAH0Up47znRhDnN6akNvZWqi8U2Sq89IG33clBE+3+pQkvVYL421ev4Stx3Dc7CGfuPhX6d+N2MWHz6dSj0gmayoRqS9M1eJ+zj7E92B6MAcZAWAx4iHO895CUaoz2GCLLZsMmDxy2zskOtG3Zg3zXEedvvsXNP7+pRf6yeOy8Iit3vsUnFwtaWxTw+nVFfL94zxH1E1HFy1+o/66/hoKDDBTw20/lf1857hVFJH0KL125IQn0rffwrOM8M07CgrJ6XEjiHL8ft6zItCSHIjex+fMo/hjfiLJ148krivy+O4cj89Vrdp6axHNvP4CfGSPOLSj9TkWoXefF5gfw5Lvymud+l3KO9jhs25hUoz7i/GNcVpHim5dfwWNadDn7yCtVvFx9BWlH2Ygg3sDNL27g8kun7P+zZ97EJ+SoXX1Rw6aw3T2CM0ddq21exavfvkbtYr4eE2ezXWq3A5/HNmIMMAbWjwEncbYn+NUhudjXg7EFIdPYmkmBBIJdR5zv/AUXC24ApHHuqiLBf3pNIyf04v4Mbz/iPieKyCNv4XMreiyG2PX/z+LSTXm966/r+9X3dAHl06dw6nQJWcd5hmMb+j8kcW7o2usoYzGDFyxifAzfXfZep+f5gpJguKUaQyoSbT4vsjypCPcRFH3rdBeIc612fe49GU2+9R6ed5STcPYtPn/7MQ1/0kaFi3+xHS3neTsdZ43axYst8bxj4my2C70LeMv2YQwwBjYTAw7inBxasCLHuUmfzBmOl6RsmFj3tIxQb9GkQDLOriPOn77pig7L9kifV+REaKCpvX5Icgs3MabORS/2G7j0Q9ontqdsOcjNS2ft6KF9Xbr+pm23KXF+5qgkxpczmDDV/TgRaxdx9ttvX4O00UE5mu8CcbbLo2NB++6LJw1HZ7Xj6Xq+5+10nDVqF4MNmThXn2uEK96yTRgDjIG7iAGbOAuJhpUVY+EQ+kOnk2vDYGZrJwUSidt1xFknxjpgHnkeF89fwMXntYifTVi+xVe3bhs/1oTDO27iHEXp9ar8w5pIeP0arr/7Fi6++jzOlLIb2lntSJqv1KIqwQir1SV8bOh23cT5YZy7ehIvez400XA7EOc0Tr30Fq7/7YYXLyS5sCYB6uROI4gOB0wdY+PQ68DtbJw1bhcTbu1+whrnDX3+mGzN+/T+zd8ZD4wBgQGLOCd6p23SPJSIhX8YtWkTCbdoUiABmYlzAKBtwqJkHJYsw/TdS5wjhuwIkmTL87/69C08q2lgqT0a2T41eNo1wU9mDxB6ZffEv79u5QIQ6ybO2uRAfYKh/X2riXMJ564q/bovVkT7uwnwegiiNwvHzsHZeuzi7ddMnL02aeR5w+ewHRkDjIFGMLCnc2imMdK8txndablc92z/1k0KpEozcQ7oADZxdhOdgHP0KLb6ni2dwql/eQUXz7+JS3/6TOpcBbH68wWjbITapvFtSKnG3c6qsW7i7JJwGGztb7O7INV4VmmY79zA9fNnUXCnN/TF08YQxG2Ls7raSe9bG2MXwgQTZ922/J1wwVvGAmPg7mDAWnJ7cXYCPaHlGapg0X5MWfmep9EXvTuFDQIFE+eANvAlOgHnhCAJaZok5ok8ru+61XYOSZzvdlaNRicH1tQ4h7FbY8T556PftzKNfD2aqjmidPaSijZff82sa/fF08YSRMLBtsFZiD5BZXZuN9Yu9bSlsxxh8MXHsM0YA4wBxkAQBvbkpkeQjNRvpER/dltMCqTKMXEOakN6cd/G1f9tyrmcRcmUHaNwFueEXvr8i+ZFVQpv4hNjNo6gstTzX0ji3DChqacs+rE10tFdelBl3XBHlimrxkk89ah+Pfregp5cG1K5ONp869QYcS70PSxT9M0dweO+15blsImzJ22c/L/0H2oCqsdhIpyZJD9RRPwI947HWYN2MbZTN/4wJ7X+H+8n3PCW3gO8ZSwwBhgDm42BPYlGtMkibV12e0wKJAMxcQ7qLFoe5y//gt+e0Sb1qdUHLT3pzXecC6ekX8FVtejFzcsv4pQ+ZC/yOF/eJnmcjQQjyB7r/y+2RpkzlF5ZWwDlmV/N+RBnLY/zh/fhoWMt1eivWE3wzRPB2Tqserbhf1yS93zh1a7wy9tH5vHXZUG4nsD7ieD6p//tA7XAzQ1ceq5QjTqnCzh7/hpu/v0zn/SFDRLEHY+zBu1iwnWiiK/F5Nnlh/GbBgIe9LzkbXAfYPuwfRgDjAE/DOzJHpqD+TOBvmaz4aKd41IXLVYXbIR4m14I69zHxNncVnbD11o58JvPcOmsNxrtyHZwp5qVozpx6zauv16qEsB1tqNd3nvgOp4lt6/ch8e+14ZYkCSj1sqB147hu2vBbdnzzFGcsycS6hMN3RFu53V+OSblGpi/H08H9tuzuESL4ogRBcfqf7dx9aUL2tLa+j0aJ4g7G2eN28XRH5oG8cd5GW3+emys6tDcA33FUQ8u7658XjIG9Gclf7+X8SA1zpZWWUSQ9c8h9LeYGrcVfePyuO0wKZCMz8TZ1FaufSK6fOUz3LTTiYmlk2/g8ysXtBUIXefsjSJ75gKuirRk+pLL39zGzb99gIt69JpfiPKFaBNnn4VMRHT5wgN4wbHU9oN47sIIJnq99ieM69vRH+fwM/18i0gHE+dIJIOPjyjiNT2Pp4LIc1phRWvzansTEXRPNqX9dUo1FG52Ls7WZxer3Zu68ftp5fgcWcMbHG1m8snPW8YAY2BLMGDncdZfyvfi911DnLmjbElHqadPdP70Pim5eNdngZQtbMN0/Cj+cVSSZ+RP4/2eNB7fF46s12MDPnaDbLqvCz/vP4Z/5FWbHTmNP2zIsvEbVL4txDJjjNuQMcAY2AoMMHHmB/+2J6Jb0TEavWfbsYN49kMpn/jZy1ufptFUj3TzJD5aUETsvh+BJ5lt45fP/ofkpE6ha144hl/7yOdM7cz7tnG78nuH3zuMgXsWA0ycGbz3LHi3nBj8aMGx+t+5a5re+P9mkGnb3i/u022H8dHsE/iIszNs3z6w/zhuzR7D79u6WNPMz+rti1NuG26bXYQBJs67qLG3nGjuNFvTQijaRL1zV4/hmZcHMLDNSTNjYXs7Ndw+3D6MAcYAY2B7YoCJ804jc1wf9vwZA4wBxgBjgDHAGGAMbAoGmDgzsDYFWOwpb09PmduF24UxwBhgDDAGGAONY4CJMxNnJs6MAcYAY4AxwBhgDDAGGAMhMMDEOYSR2DNr3DNj27HtGAOMAcYAY4AxwBjYKRhg4szEmT1MxgBjgDHAGGAMMAYYA4yBEBhg4hzCSDvFS+J6sMfPGGAMMAYYA4wBxgBjoHEMMHFm4sweJmOAMcAYYAwwBhgDjAHGQAgMMHEOYST2zBr3zEy2S0cG8UZqDX9Ibux1TffifWxjIwaSR/BxKoOnI2wfo33W+Vxsbk4g3twS+BKOJ/YjHmtF8zrvtRnl3w3XjHf2oysa3Eah7NDag9TgMLpbG+tLzdFECBy0oqtvGKmB/Yj74SXeb5Wjr62BOjW1IBZLIBb4PEigPZlAvA6bNUe3Bt/xzuF1tYnV7tEkuuI1bBndj+5kY3WMJ3vQHmTLpgT6ujsDnyGh8OmHl3XsZ+K8DuNtVaPds/dt6sIvU6fx9bJc7pmXem7sRXPPtv926mu0lPXy9/HX1BhON3FbNI6rFrS3J6svuKYDyJ+soJJPV0lxtAd9Se0l3DSI+dUKKisz6GbbW7brOJBFbi7X2OfQMNrr6V/RNJZEG63mMRRIFmv3i47xFVTKBRyM1T7Wi7FOTBYrqBSn0BFU/kgaS2UXplzHd2dWUSmvYqZTliOWSCLmOsa+/74kOuJaefvzqJQrWEpVMRrr6kfXPu2Y3gWslSsoZXqqWPe7vtgfPYD88Qoqx/NINWvXCTpnQ/5TNm24TURZWzB0eE3a5EDVJrb9VDn7ZuUxhXQinE2ofoS/4zkMmPDXfAC5UgWV8gomQy4mRs6CcOLW9+nxd85U+Zk4U0Pytj7g12uvfSn8cU4SZhx9FB+nZvETU4ep97p8/Oa22061b2QQv0k9hFtHFSbnjuLpHU3gOpF5QLyINuqzhLTVf1uRzpedL7jOGayWK7BfphqBGFIEIp4uKKLSyvi1+lgSk4V1tE1uuA47aqQotV77J3BwuYLKsRl0N/KsiI2hUK5gbbY/uPyK2K6M+0UgFVk8mcdQUxQdI8sWyV07fMBLnpvTWFpzknVJuqvkP9afd52v6nlyCeloGBLcqojnGvL9Lhv3SAIeqi/qzmdY+yqbNtwm4j6qjGu5Ya/9qBxtU1gRz5NCDaeHjte2RLiXfPEnniuqPywOVx1w7RpOEq/aZ20Nq8dWq5+SeDZVUD6u7RP/nxDXLmNNP/bYKsrCmQyB5T2HsotYPJzH4uFFLMxMY7Q7iZagF0hTDO3dBzE1cxi5es7zrXAYENY+pr93ANGm5uDOt8llcDZk7TJvm+OPZ/CCtWz0UZTqsVHo8/rwx3kiKPfjJ7oXX8/9+FjGtx8G9j2BBx/5L7z2wi35+d6/h7OV7tDNHsHjftff0P3qIb+6gD7tupJMrmG+dxOeHfQyXSkERDSXsCIIRXkNxVyNyOfUoB2VaT6wJAl5Pm29ZGUEUkX+YsMq6raENEX4mvoxLyJxOyra3IKu0WWsihevIBOutq35rKeI6uED4XBLuOnLWfeznRTav3c/DvpFr3NFixRW1law5HeM7/4xdNn3iCLSNIy8TnypHkYHrUpMbXsoQpzvD8a8O5psn09lIXwT0WyfQlG1hZc8tyC1KNtJEjdFuhVhig8q0ryYRjtxIUUkw0abY+oaRQPRl3Wp0ceWS1a7+jsKAfZSNq3pjJDt3NumHsysyNGIlK+ToJ5h5RVk2gPK4r62+N05g5LAx/KY/QzxtKc4TkX4K2sFHKRnh+l6Yp/CXWnS5VhZ/aM6CkH3sYi7hyD3W6NgYey2R5DmXHYOWZtA55EbH0CcAKMXNNKB4Wki2obzpkeQ3KIoIhPnOsGrt2toAuy6R8jzHh98BLjvR0CuiJ+bcKWXhb/X9+JkeyHWexE//VdFmH9RJ3EW9mtK4f2cdOz+Mdi9+fY3RtnMZJoe9OveDsqhaC/BqvbpZoqy1Yr+uTFnvWjLWMkeQHxvi4wUWcQxifH7KqiUckhpw/jkIOT7/YeA111fdxk383d8GPNFGdmqEHEuTNUnnTBIBcLYQJIww3C2ivqHimoaSa5yANz/ucmOIpS2xCExjKyHdBckUTLIMWTk0UWoI51IzeQxbs+BoWhyDgM+7dicks6bju9Y7wJKoj1OeomTRd7WVjDfn7BJl0WY4hMonKxgdW5Y40DUN0PKWhRp1wl7x1ge8wc60dxE13I6ze62djifPnV2n0O/q9HcevpXAkPT0lnO3y/lF+XiktPJ1uRAMWXvyslyNbrrit6urmQdgQGrfE2dcmTlZNGSYFhzIWJC4276DCKzMIW+hOk/1xwKC4drmO+pPs/E/az+4XFiezBzzDDKoSLoNpYD7L5HJ8jR1n6Mz4rocx6ZXq9mJTm0IKPTs+PoadEK2NKLMXXe/FDH5r94DBVi4qy1h8E+1KmM25AE2HNumPOaJvHRkiAlT+GjrnWUsd468fFb0g89GNnkdkgduYZfKbL8qx/8FnOL/6++iLMqX7rruHTulo7j15vs3BFxdDzkjWR64/qLfJkaCAS1T2QQuXVEgZv3qZe0W98cTaJdj1qRttFNyPTfD2SC9a5U5m2wFZIAGWUWjsMw+sakBKUyN1hX/5ME2Ies6rYxffcQAz/caPKBQZd8oA5bdhwsVMmSNeRdQbkkh8ILY66In7iuIvErk2lXFDyPosAcRb6zaSuaTTIeO9pKUWyKJhvKOnRY2M7rQHSMLWCmy1TXFjTTyKfLaXFro22SaLK92mdHOokYCvmCeo409+VkhF/sE/gX5wSOLChyfdLrKNTW8U4gJ6LF5VXkD9bQ+uoTLcnGAXW05yyE6cPiOob26hgrWpF0KxIf5p4B5dEjw+vqP457uJw4A9bEO86jcW7pmpDkeGrAFUbvwHBWkOrDGDaJtdtGsCCkG9kRJH1utpkvVSbOfg/LEPvDEGBTm4Y5r1MRklwRPzFdg/fV9YLdzD50L177we/dwmu/+C/8YPY7Uou30BhxjuxN4f1F5eCpyUWbYw9zxElGzDZJprFX6Zs1giUjWvUSNSfxrusaVrSxFancGionS1h2RSUL1steDV+P7L9H+oTSJT+QQyohHQeK9tmkL9TzTUVUV4v1SScWleQikIRVn/8d45K06JHQKsYT6BaTqno7a+hJW5HOkV50DWVBOrSo43xf9X507YGsiGAWMT4ote++UXCKZlO0nH4rYlsc0yagOuwqh9hra1OVnR1Eyb8PWG0YHUZeTGJ9YNkZfZ1TUfTjReTncjjYIeqtHJPjeQyRs6jr+8U+FaHXI+NkJ3vrdj7tum7wPAWd2Cobm3DriOaTYyAixj4SjXZFjj11JPkMSbQinRhYx0S+Plu+oTCZn0CXMXKdQEdvGuMH0xho84lexxJIZVexev+UU4pk296Jaw9xjrQMIGNpl0fR6TipC2lr/yH069FmOsb3POcNbXDQeRu03U3EOTY/gO/+n2M4d+0UXrW0yadw7uoxPPv6CCYC9JGx+SE8eekEztE5Vx7Akz9qQ6wGAW70PNHWTw8/ISN5Y2OhX4bp77yIt6/fwFfffIs7d9Tnyxv45N0LOJM14ek1XLeOu4bX96Zx5vwH+PxW9dybn76Dl76T9r1/9swFXP7Udb9vbuPm9Xdw7gn/89aP5Qw+FhKW+x7CGxvUD5xlWp9dnNcy2b3Wvs2uXxRL972FJd2Rb5g4R/HLsacsrN4ari9aWJedVJRlLavfoypvGNiMaLdb/7mXyPsSMqFeXGPIicwHauIV1dcd/UpPLluTAo3Rrs4EKJLoicZqGTYc+lnqE0SkakVx1cvfiuY1JZGaKaCkIqKVEyvIj/b4T3Sie4lt2Pvt7UF6rN87pF+uoJZml2xobSnyFpIA2+f66pu9/ZImu1kTuUwYo4ledUwyNEp7Yv1I92tR58iwzN5hmuCl5EMeW5E9lKMno4nCaRtE1i0HEL/VBLCKe2KYduzSiCDdyjmwMZ9G5ojIxCEmhOUxbu+nVG6qn5QryLkdAsqwMU1OXiuG5lZROVlERmDdInA9yIgJnxrJlHXxRsbtNhX4U+Ta4yhQP16aQLsPQWwfkZKVtbkDPvKHBMSIgaizfn1ZLq/UQZRLH60i58uk3ZZ1UM8yd/S/qRMZ8QzR9fB6nwvzPdKKZjd2I62+9dTlH+mcuPcSDsapbYK2tdPreYlzwi9ynED/lJxEONbpnYQX7RyXkwU9kWpvJ3aAJIzBQhyzW4hz55MLeFkRX0Gaz1096SDQr354FKWMwebL43hOI9qvfkjnPYRnfpHBz/wmBzZ6nmqzN6akdvRWqs+XuOp4KLz0AW4SWRbbL2+7CPQ1vF5y169KEH/76jV8Jc775ja++rJKnu98aTovivTZd7z3u3W7Stjv3MDl5zeLPG82sWzcLnqbNP59s+vnxkEUkXUQ56dTj0onbyoTCqvh7VJnpKgO8hKqDG59s29Ey2BPqx+riJ4eoXI8k1vRPU6SBTH0voz84SVM6unnKNpUrsAT1VIkpDjqlQeK+lHES3/Rm+pNEfDS1LDKUCFmzauoqIoyFk1SAkddwt/PWwapnTRJBrzHaramaN/cWF1ptMZzgvTVIGGibmR7PRLqqjM5NZ4ooeu4aj32ywlkwkkYpLoMYl5MLl2ZsaN28VER5S7ZKeKq5xMhMw2Nkx3Ff5q+uX0KBY0MU/aENWtCqyFzgn1sEZO2XlqVNdqDSaUwXXMAAB83SURBVCLNIuvCUh75/JQj/RyRRJON7Sg65a4mx8MTzdazalDmFG82B6qLtT0u9PLO0R3Lbqofe/qP1kY04hGk09WJsGwPsrHMSKK3UWSvaovVBaRoDoQpUwmVgZ4tjol3JBGSxNnhKHVMoLBShj8RJ2yRfGUNuT7SbhNJ9x818B3d8LSTdg2DFt9pE4NUI957SEo1RnsQJWOobUtyFPMi6jw7gT5tskckRtroBaSTsQ1+6ZDhgre7gzh348krMsr8wvkBpLToctuRATz5rvzv3G+GXJGVFpx4W0Wnr+RQPELAi6Lz1AxeePdBn6wajZ5Xbav6iPOPcVlFim9efgWPadHl7COv4PIXighffQVpBzaJIN7AzS9u4PJLp+z/s2fexCdEoK++6MJmAb/9VF7zqz+/6Yxmp0/hpSs3JIG+9R6eddyvWj93h6rv92YTy0btcq/Uz1DObUmcq5EyK92ROw0S6URVyqTiOEWxDPVrAIeeF6WKaK3mJsIRtYN5K5JsemE3J9TEuJOryA9PyPzNxaLMaHCyhPneVkQos4Z6WVWJlqgfZTgwEShZ/45JmWHA8cI12GFgTr78VldWUJjWIsFNCaRUTtraw/lRhL2fp69TpLScx5ChfJ7j1THr0mdq8hvj9UkqoEU9TcdJjXApdIaEqu63gHGxKIiKBNJ1ZgRRpewpy2Noj+1HelRMHiVMK2fSSFIkwSz/0wIG2mrlb9YIfI3MHLLeLWg/sCCzx5TySB+Uk2ZXClLGUnlgAQPRKOIqK4YkXnmk9EgnRdFJSiLqFBvE5Hja7k/jhwVm17Cc1qPvqi4e2YeewWYJRSENMeibPf3YtqXLpoH5mxUR1q9PuNXrQ9emKHc+jbjo64en0LEvgY6ESTdejZbr+uOqAyL6p6uf0yhRrdEkyrBhxAvV32ernBrT88vUF8Lsc0acmzowbE3yW4QpqiwuGEuOYEpl4NCzceQOTSGV9DEmNcImbncFcW5rwUCuDalcHG0mW353Tkajr87hsOP/ITxjRZRP4qlHveDqeb6gJB/udHSNnle9R13EOV1A+fQpnDpdQtZRfnW9596T0eRb7+F5x/9EEL/F528/5iLHURQu/sUmwM7zzuLSTUmcr79eLbPdcWqVx1EGw/k1/79bxLleuzRSF9M5m10/wz23JXFW5SRJgmvY2openVxCalMyEm2OvtkKlhxesTSu5eICUkJvqCQOImoZ65qxyXN2OIOiIG6TkqQ4CHDrBIpi+NYhXXG2a8oaZq0VWaVoXgVCw+tZjbA9IzM7hCC14e7nLKP1zCCJR12TG1W0zxGhM1zb/SwhshMk74jSIhJ61NN0bTWiUIuEUxkiB6TuV2SsWFuDiPiuzQ1KmysitJrpUdIcOfwvSZ9GmmpMhrUnm6rr+Y42JFVqsxDymHj3BPJW9hM5kVOkmpNOiyhXK7ozRJ6zSE8WrfzEGQt7TkdIRtH95yOQLMYTRQ0jraGIrWd0R/Vjl1zKfleJtiGSG4S/xJTV3xwT92jEw5A6j0Z77JGIfT2YEfngjy+gT3cmFDbICaQ+TraoFPJYEvMY3MSX+mXgKJvqI2WzlETYoLlnyqVB15wRldqvtKztc82xyNU5r8JBnClrRm7SPTGw2tlaEgMYm1pQOZxlBg4rB3SGibMDxPSQuZtbP62y334qm9//fvtrnUf///e2LuKsnWe05Q9JViG0zFVMRvYScb6BS2f1/eq773mn8PbfJXG+eemsHaU23ttxP8M9Gvp/s4llo3a5V+pnKOc2Js7NKt8xvVQsnFH0ykWmNwyD9DK1CRbpm3MY8tFJ6trAeKwT42KBC/2F3TyGZRE9XlvF0uh+m6RKqUQ1ailemtZkm31RNEdaEFEvaL3+csi7BCtCaexD9NJ0Rf08xw4iZ6WCMwxxi2PJDnqkzXMNgaew9/Nij0hGJZAEeM/bsLbW6xMdxDwteEOkPJbGki1foAl+Yuud5OeQDsw5HRGLBN9flA7P7LCc8FlW5JyI37EVrIjIqcrtTbaxtcJ++ma9Di59rclOEj9ypCFInhAbWbb0teVjSxi3JUSqrW2iKSQFqxAjPs1NMuuGjKBrxJmcX02Oopcr1p+zsqysznkXXpGksoYDWEvf7CHUGp6UTfVor1428Z3aQXdEiOwWDnmzcGTyYmKn3qeqC5OUbH03lYH6jlocKTEhnWchEWr3WeiGJC5uQq3hwNbSmxxidZw12qRNUnXg14h5hX+lj7cdA+2+btvpv23iLCQa1oImC4fQr8swtAvFe6blMbMT6NdC9bHEgEpjt2hMY6ffcLO+74qIM4Hke5P450sP4uWrJ12fh82R40YJcKPnaZipnzinceqlt3D9bzfw1a3bzg9JLu4EEOcfUifWtr7EOYrS60oTbempb+Dz69dw/d23cPHV53GmlPVEr9eDX1tDa00IlNpvK7+14XdYTXhweTTiXKddgq+r2VZr67tfP0M5ti1xNk8AlGTaP3rVSDvo59CL0iYVasEKR8RJa0P9XPldEVLHC7sFfalhtFM6LxHZXClhebSGxMRNnOmlqTkNpLUNo020SZgoPxHjsg/Bpmiw6wXd8P0MNiOJh52azHCMsClpscPUsZ5j7Jd/bFgtVywJpT0ZsyeLkolEuKRCbtKxnK5ms5Cp1VYwmZar31m4iqaR/6csBhRvkGRTOFsFHCQNsIoskm08EWi3rZoSGJiRIxom2YKFTTVaUVkp+UqJbDxH+pE+kLSdPEFwSyvLqOaKNjxL9kbhJs7UdkuGZagpb7Q5a4kaEakR1ZfX14mqKlcd+manFMpZLyln0q9PZFdhxaT9dZdZkfuKexVF6oMk+RDRbZII+TlK9DyynRdneSO0GIuOJTdWSIfteEa5ruM5R/4vn481nBnDuRZxTvQqQrxwCEMJH43yvh6MLYgI8yEMmoh1bEhm41gYRzc9UA03tIG8wf/tDuIcx32/OWFn0qCMGt6tS3LRKAFu9DytbesjziWcu6p0xfoEQc/3jSPOEUMWDjuTx51v8dWnb+FZTWu9Hvw+NXgaXy9+X/vILA6CPDv3fx9/3ZCFOO4ucb779TM8HLcrcSZJgmNxEYr+LmBTsmmY9MPqpbdWcC1u4B66pN8q5ZkeoWqO6jPSVeaAtWUcbNf3y+8x/V3gGBKmyJXzpdU+mHUOuVLKNc+KhxmbqFl9kl7mPi9gciDc+XMbvp/2jKNngpR4VGA7KYZjhKa772DAkDHZfS6HpYJciCJwiNk+fgZDrVE0JyewLHIjl9dQWF6xoqzB5SFyWB0poPp4tkovLVbP67J055r0Qqtr+0EpeShntWW0iSBZ5CZI36zqUNKInJEQ0bLhK5jsV0s/26Mq7udCC2L66EqnkA5VUD4yhg59v/XdmVFBEmeFUcpf7HK+RJu2Dy9ZuZrLR2aQOjCM1OiMheOl+1eQEektw0hrKNuNYVREOhqaTUwEN+w+/fpULpGGzW2LjoxX1mG1cwLj98uy6CspUh+raol7MKSWG/d3lA5YK09WfCRU5NiuuFcE1PAWIfnJCX0UJeR34TS6HQP92j7f93QOzdiRZl/SLE5uH5XH+WbNSGBwWko30u4ZrD4393TMdRy3K4jzd5SG+T9P4JmfdqFTT8MlbOdHdP32k739/vfbX+s8+v+/t3UR52eVhvnODVw/fxaFtOsB6Bs53hiCmC2dwql/eQUXz7+JS3/6TOqpBWn/8wUUtDptHG7volTjLkScvXbZ7Pq58CHaaJsR57peePoLbSPwRjKQ+yfsSVkUFaUFKyi6aGcmUAtZ0P5VKxqpR6jqmcnuImNK4ykioDS5TH/xevETRUSdQ5FK4zF7o9VUdz4yCRqOrr7UDdgRNg95P285FBl0DGv73MPRtq0YGJ1CqjNhR0Pp2hI7uu1rXC+ZwYpaKS83mMCQNVmyiMlE0Hkh9c2Uv9fStiqHjyQgen1ax6yV96xIueP/TgyNHpCjFCoy6ZEU7EsilVVR5rUiZma8adPINpSyzboGkXIfp8kmrWGIpesaNOE010eOniFDCEVa3dcXRK44I7XAhP0a5M6aPOxxFEjf7M1/niPHiRzMoFzgdIx+fYcz68QJEWF7JENrZ5KdVdbyGFLOsXQyTHgNcpQCiDNp6X301IQFWc4QC7640g2mBjNYFs83X4fLaQ+6n9haS26LLBk9piiyZqhIctRnYRS6OKWry4OJM9lkY7cT//6gjDb/LuXKmqHu40d0/fZT+/r977e/1nn0/94ofj76fSvF19ejqZqyh7OXVLT5+mtmvfEmE2e9Y4jvaZqM6JGGbFS7bjax3BiHwm2X8L83u36GdlgHca4Hq+Fs0GLldhUk1HohujV4NEROZPXIWH3LNGv9zFQeernpad4oWuyIBFOkq6y0ieK6QuPZFIU8Xo/CJdA1ILWQM8sibdYalsZd2sgDMyiIurkjc0QwVtewJggeLYQQUA8aGg8afhZ1J2JsJthVsq/rq002C3s/77lEAMxRWO/xCrs0AuAYiRD/VdOA9QXYx3Fdob8tidRrImuSOt9BXg39heQyPg6HfX1xHA27K6LqJb777bzFRStnr4lERRExDNvHu6ewrKLMq0em0B2ldHWGa9Aql3Z6PVVXd8YGsltsP4YEaSJcHl/CpJtETResia5ux4oinmvHVfQ/0+N9j8UGkZmbsfJAD3QmEY/p/UXaXOIzTBo6Z35ly/7Ub3TCS3Wj7br0zeZJd4GOW1M/MoentOxqAQ6Yn6NklZ2kIl4Hrzsjs+kspYKTTljOzVoOKXfEvNbvzgxWyhWYHAMb92Rf13ZPbnoEyTCzuVsPIHtYRJSn0Uer4ugXi/ZjyvrfZ4EU/dhN+L4bIs5EnM/9ZsDbefdG0fPcfWaN895Gs2M0el71AV3oe1jmxp07gsdrtLtNnD1p4+T1Sv+hsmN4iGyDBLFwFufOX8DF8y/ijDu6LcpaeBOfWDIRtzSkWr9aHSz4/80mlg3apUY7BddJt81m10+/l/reMHHuxh/mpO784/2G667HJiry68wcodKwrW6WTEMNp3qydajsAceXcZBGrGhCFxHdeBr5ksxOEfOpd1yl6/JkDqDUb0SyHOcTwXEuChGEJyl/cEWuHdcUbVUlxmZZAt3XKQsx3Tfc/Qz4IAJaz7Av6TeP5zDgfgcTWXJHMd2/qc3IJpTpgIava6T5ImJYkzw0HcAkZV1QZN9ha4pIq0mC5ICI7BpuO5uG7S2SdLKEnK1DVoTKMwpDOYGdmUJIV607iY77BuGS0iVqy2Tb55I2Xtjd9D/ZPXC7Tn1z4LUlFmlkq5aDadfLuibZODh/cyjHjexkiN5S5NrstBJxdvVNGrkgvbSvDahvNypjcd3X9z7OPr8nQR2t5gnViLIg2506eY52YXh60YpI58Z7zdHQmtd3FszZwLX/2w3EOfZUTq36dwyPnWqp2rmtBZmfHsHLl475LGSi5WP+8D48dMyVx/nKCbWoiksbvbfR87T2iszjr8uCkDyB9wOHDKNI/9sHauGRG7j0XKEadU4XcPb8Ndz8+2f43EhkGySI6VdwVa1OePPyizilk2eRx/nyzsnjfImlGp4XuOMZkyjiazFJc/lh/MZNYtb57LLTV/Vo/YI0zwFp2Bzlq7cMFMl0XL8FXSLNlkj/tpiGSMdl3UMda5OcNjGpR7yInOTELk98TA5xioUjinmMd6uFS5qSSC+KJbVXkVPaRvscUX4iKIKELKWrzy/fupH8QctqYDyWXp6G6KQ4nnScfhMH7WuGvZ/WjnSuGvKu1HzR07lEACuoaJMjyV5ENlay1dzAKXeUVPzuDF40xkFuqazaVhLOWo4JlVlupdxHi6w3deLgkojIanmLiUh5sk/4DNtHk+jQR73JcXBEWav4dTtsNLriN4rRnl6Woz7lMlYOa+tQxNNYEprwUq66TLZmH3IQRZ9ZHg6OfFLbRfa1Ip7st3TOMwPJKv4MpNI+h0Z9PI6C0/bV4/X9hFutTbQ6mM/R+oUJs0b76/d0fu+a9s+1bnKUqmUyEWfSrxtkMe56KQexpuPnPo8mftbj6GrX2JM9NAfzZwJ9zU7jRGK9KnuG1DLreZwXRbR5dhzd7nO0m1WN5bruBhyzG4hzZG8XvqsWObEmBF4TWTUok8ZJPPXkiMrX7CbAUUSCVgB85uDGn6e16S/HpFwD8/fjaXpZa/9XcXEWl2iRE0GQHav/3cbVly5oS2vrGGqQOO91ZdUQkwFVJo/qBMHbuP56KZh0Geuil2+rvjdul2qbbFXZw9z3CZz6wRf41b9qn+dv4bUXbuG1X2j7/vUL/K/iE/5t2DSIP87LaPPXY2NVh21D2lW9GFwEQkbkgtKwham/zzG0vK1jJnqVdKwtjaFD64cUHdSzVFAk0loumCLTuj2aEujTVgssF5ewLNKf0aIn+rHie/uYmrRGkSEfUu4+L8xv0rjqUhP9PCJxLv1q4xivLmjj1ILLvMb2vmOryA1UgxT6/WhRiLK16p3XFoHD5HrdfL5Lba53+FsvQ2RvwPC6z3XFstUHRXpCkoBEezAjlpUul+FclVFd272yYeCwvYZn5YhUJ6Vq+DWtXEd6/qCh91i/tlpgGSv5ZZSEg6gWPXHaJoqO9LI14c/Sawtnz5aGaOWMtKK9c1BOBswXsWqt+kcYV46c0jcHkjsa9XE4Ctp9fNtDyyhTL74b1De77VRN4ahJvezyKqfWPTJi/9+Cjo79cEjHOmVubo8UyD6nahdyMMNNoNUn5aqFZgKdmep93HWWGmdLYiHJsEWAgyQXTQl0DU7hkFoExcrhPDON0d4ue/Ug903uxu/dQZyjiLQlUbrwAF62l89+GC9fWsAJK4qc8ifAYvGa+SE8eemEilqfwrkrD+CpHycR27s559ntHsng4yOKmEzP4yntpW0fQ50ifQYXr3yGmyoSLAjszb99gItnRGo4IoJu6QTtv4FGIqvZMxdwVaS/0+4pSHv1vv4dyFN+qse22K7PLtu7bqJNfoDH/6ciyoIsB3xeWv2BmTg3deP308qxO7KGNzY42iwWBSmVK3AOIavVzrRJextpayJl1ZnorRiYlREhR6TZwqgiQh7SSfuDh6ibE9XosxXJLiwglXCSxfbBnCQoIhI9mKyu4nd8CWmxcMp6+wotokBkzn09pf/csPzKJMtwyyY8v80R8PaUzMAg0pbFFT6Ew1GVKSiy0WA0zKFvjvfbq9l5ItajObkozP1Z/2MG9tsTS6120vXNrcOWpMcRadZsPzDlxYJJ32xqf4fjIFLTKfyW759yOH36uRT1tJy9dj9ctcCKPttttYbirJZaUZS/KYnUnOwvIhKdSgzLBV/cIzUUtaRriTkMxQLy0xNI9exHPCr7gdQ315AEqFGfqqPgV37D/hD6Zt1O9J3mBdiOAdXD3prxS+fbW1V2Y4pL5SjZo1kaPuzz9X2207+EtK5q0I/RvlsOYtCESJo86d7m5STUQGdGu4+7rHYeZ/cf99rvXUOcAxpzO7dZOn4U/zgqyTPyp/F+TxqP66mq7tF6bWebc9kMLxnC2b4u/Lz/GP6RV5g8chp/2AgSR9ffom11pS5FMEg+Ua5gdW4Y8SaRmqvVmvgn8NHcISfIGCUGtmRDTFjSlg4W57UfwKRYOVBlcVienkKOFtwol7E02IqIyJJABOS4yJmrCDUtAy1e0Pr+LbLZXesnIko/XbQmoelRf3J0LAJzYgVLcwVJaIs5HDTJM9z73HINTd9cmxxRdNRn6x7GVyTJkoCIKO9aCfN9ZrmIZddIK8SCOrFIC2KJfhmd9uju3f1UjdII2YKIaN8vJqG65EUmrNCkQYGrk0XMdGoOXFMLOvqnkP8nea1KaRkz48qhE8efWEKqOQqxhDzheG1pAl3qHWX3K1EObX/XiJgU2I+uZu1eIlf3wQJo5EFmrAk3MbB8XKRRK2DSl/i7bUWTKCtoTN9ctstJ5bUXxHE4bgn0paRsqE8ssW5NvEuie5hsaJ5gSBFhS9/cNYMVUx5xfZ9akESsSFktD6WWU6n97LZXDmYDUXpZrhrOjH0fr82ZOAcY5649UHdJGdLNk/hoQRGV+36EDZ+EtUvsyLj0Psjqtsn+h+SkVaFrXjiGX2+RxKzucgdhvDmNZYvI0sITQisoiEIZxekeqSm29b46UTK/9ETZrElbpTzSiVZ09E5gJldASWUDESsHFmaG0UFReiXfWJkbRveBBaxYMgRBNGSWBEdd20lHrfSlO8H+QW3TegDz1nLP5MA4MWwtB02kzo746W3k993bdkRWBLmlLCrO1SCJ+ITYqqgptZ1T39yCeMxJGOk42lL6w2pUs4ziQacTRsfaW9LXLi9hSWGtNDsYQhMvJEEKV4UZdMc6MTA6g/xySembKygfKyB7oNN2HMXS8ZNHVpA70FNNhSe02uOqv2htqjs4qwvelQHt8u9tRTpHZK+RbT0ThtepbzaRTrK/4z/SIptw6JbpVLEtRw6khMOLBdO1AvadzGMis2o5UVU8BRxfVz8yyUyq9ai2rdzHxFnrGG7j8G9/4KzHNqfbDuOj2Sfw0UZnL+C2XP+w926x4f7juDV7DL9v69pgTfPm9Jlw/a0V6cUiMhTZFW3Z1Ik+mrwnfgtphRbhWVnOVSf3mdo+kkDcirpR5ooyVpdzmOzXyIfnPDXxbW0F83aWBK9dYl0zKK4V64quhbOD915bfp5YPGNt1VpdsdljL628YmKZnUZrP/rc0WX3795Ob/7nQyWsHlvGwRqTseu3iUvfHFQP9V/XiK4rnUG6IyA6TdfT9M0dY3lL3lNPWWNd/VLOQU6icPDmpjDUHkDy1ShIuWiQl1C59sqMNOWGs2to7Wxfc537iOTWq29OpjE/l8PMgKE9OsasxVsyjpGE/Uhn9bZU36fT6G71s2stfXP9dY93ulJfuvtDo7/79odzzFS7MXHeKADzdZi0MQYYAzsZA5GqxKMmkRGrC4aRYgXNd9hhtmwOY48dVueaONnk+ja7IuZB5Ym1ehehMR6/nTBLjlYd9TTWaVPaQa3YuC3LVj9p1+3GxHlTALO+RtEbiL+zLRkDjAHGAGOAMcAYYAxsDwwwcWbizFFCxgBjgDHAGGAMMAYYA4yBEBhg4hzCSOzlbQ8vj9uB24ExwBhgDDAGGAOMga3EwI4hzltpRL43d2LGAGOAMcAYYAwwBhgDOx8DTJw54sxDM4wBxgBjgDHAGGAMMAYYAyEwwMQ5hJHYg9z5HiS3MbcxY4AxwBhgDDAGGAO1MMDEmYkze5iMAcYAY4AxwBhgDDAGGAMhMMDEOYSRankf/D97qIwBxgBjgDHAGGAMMAZ2PgaYODNxZg+TMcAYYAwwBhgDjAHGAGMgBAaYOIcwEnuQO9+D5DbmNmYMMAYYA4wBxgBjoBYG9hzKLmLxcB6LhxexMDON0e4kWoKWlGyKIdE1jMnMYeTqOY8JKntyjAHGAGOAMcAYYAwwBhgD9zAG9gjSnMvOIWsT6Dxy4wOIm8hzUwL940S0DedNjyAZYW+llrfC/zNGGAOMAcYAY4AxwBhgDNx7GNijE+Roaz/GZ0X0OY9Mb8LjESWHFmR0enYcPS1aZVt6MTojCfXCcBei97AnwSDW2pXb0dMHGB+MD8YAY4AxwBhgDOxeDHg0zi1dE5IcTw0grhOnfT0YWxCkOouhVoPBWgaQsaQbU+iJGv7Xr8XfmZAxBhgDjAHGAGOAMcAYYAzcYxjwEOeITYBH0alXpn1Uapqnh5yE2j4mgf4pGa1OJ5k4szfKGGAMMAYYA4wBxgBjgDGwszDgJc6JESyIyHF2BEmbFEcRSY7KSPTIfl/vqGuEiTN3kJ3VQbg9uT0ZA4wBxgBjgDHAGCAMeIhzvPeQJMijPU6tcoiI8+C0IM5zZimHTsL5u6/zQQ3DW+6kjAHGAGOAMcAYYAwwBrYXBpzEuakDw9bkwEWMdTY7yZ3QOFsa5gUMJwyVSIxgniLVpowcTJad9mR7sD0YA4wBxgBjgDHAGGAM3FMYcBBnypqRm3RNDLQatRmdw4dlNHp+GqlkAlFBkJuaEU8OY2peyjTmhzruKQOwJ2dwgrgTM4YZA4wBxgBjgDHAGGAMeDBgE2ch0bAWNFk4hP6YD5mKdGB4uprHWS6cksfibBazc4I4T6OPM2p4jMzk3AdP3CEZK4wBxgBjgDHAGGAM3EMYsIhzonfaJs1DiVhwAzbF0N59EFOH5pA9NIdDY8PoH5Tnc7SZCSI7CYwBxgBjgDHAGGAMMAZ2Kgb2dA7NhCfNJo8g2otJkd95YRzdvGpgsNNhsh/vY5sxBhgDjAHGAGOAMcAYuCcwYC25vTg7gR4/eUZgQybQPymkG4uY3N96T1R4p3pAXC/27hkDjAHGAGOAMcAYYAxsLgb25KZHkGwwUhzvUbroqSHoS3dzo21uo7F92b6MAcYAY4AxwBhgDDAG7j4G9iQaTR0nVhi0luD2SU8XGKm++xVlcLHNGQOMAcYAY4AxwBhgDDAG1oOBPWKCn/kzgb5mP+OSRCOP+VSXc6EUJswsWWEMMAYYA4wBxgBjgDHAGNiBGJAaZ2thE5mH2U4xd/gQ+lvMxLmauo4nBK7Ha+Fzzfhiu7BdGAOMAcYAY4AxwBjYjhiw8zhvx8JxmbjTMAYYA4wBxgBjgDHAGGAMbBcM/H8EpTZ3TF/v7QAAAABJRU5ErkJggg==;" vertex="1" parent="1">
          <mxGeometry x="430" y="350" width="444" height="228.18" as="geometry" />
        </mxCell>
        <mxCell id="yoNPwfW2ZA3Lmr0KiJ5B-43" value="&lt;font style=&quot;font-size: 16px;&quot;&gt;arr[i]=j表示前缀和为i有j个&lt;/font&gt;" style="text;html=1;align=center;verticalAlign=middle;whiteSpace=wrap;rounded=0;fontSize=16;" vertex="1" parent="1">
          <mxGeometry x="790" y="185" width="110" height="30" as="geometry" />
        </mxCell>
        <mxCell id="yoNPwfW2ZA3Lmr0KiJ5B-44" value="" style="shape=flexArrow;endArrow=classic;html=1;rounded=0;" edge="1" parent="1">
          <mxGeometry width="50" height="50" relative="1" as="geometry">
            <mxPoint x="470" y="260" as="sourcePoint" />
            <mxPoint x="290" y="420" as="targetPoint" />
          </mxGeometry>
        </mxCell>
        <mxCell id="yoNPwfW2ZA3Lmr0KiJ5B-45" value="f[1]" style="rounded=0;whiteSpace=wrap;html=1;" vertex="1" parent="1">
          <mxGeometry y="550" width="40" height="35" as="geometry" />
        </mxCell>
        <mxCell id="yoNPwfW2ZA3Lmr0KiJ5B-46" value="f[2]" style="rounded=0;whiteSpace=wrap;html=1;" vertex="1" parent="1">
          <mxGeometry y="510" width="80" height="35" as="geometry" />
        </mxCell>
        <mxCell id="yoNPwfW2ZA3Lmr0KiJ5B-47" value="f[3]" style="rounded=0;whiteSpace=wrap;html=1;" vertex="1" parent="1">
          <mxGeometry x="80" y="550" width="40" height="35" as="geometry" />
        </mxCell>
        <mxCell id="yoNPwfW2ZA3Lmr0KiJ5B-48" value="f[4]" style="rounded=0;whiteSpace=wrap;html=1;" vertex="1" parent="1">
          <mxGeometry y="470" width="160" height="35" as="geometry" />
        </mxCell>
        <mxCell id="yoNPwfW2ZA3Lmr0KiJ5B-50" value="树状数组，在代码中即f" style="text;html=1;align=center;verticalAlign=middle;whiteSpace=wrap;rounded=0;" vertex="1" parent="1">
          <mxGeometry x="100" y="420" width="160" height="30" as="geometry" />
        </mxCell>
        <mxCell id="yoNPwfW2ZA3Lmr0KiJ5B-51" value="前缀和数组，在代码中不存在" style="text;html=1;align=center;verticalAlign=middle;whiteSpace=wrap;rounded=0;" vertex="1" parent="1">
          <mxGeometry x="650" y="140" width="160" height="30" as="geometry" />
        </mxCell>
        <mxCell id="yoNPwfW2ZA3Lmr0KiJ5B-52" value="代码中的表现形式" style="text;html=1;align=center;verticalAlign=middle;whiteSpace=wrap;rounded=0;" vertex="1" parent="1">
          <mxGeometry x="300" y="340" width="60" height="30" as="geometry" />
        </mxCell>
        <mxCell id="yoNPwfW2ZA3Lmr0KiJ5B-53" value="" style="endArrow=classic;startArrow=classic;html=1;rounded=0;" edge="1" parent="1">
          <mxGeometry width="50" height="50" relative="1" as="geometry">
            <mxPoint x="390" y="150" as="sourcePoint" />
            <mxPoint x="590" y="150" as="targetPoint" />
          </mxGeometry>
        </mxCell>
        <mxCell id="yoNPwfW2ZA3Lmr0KiJ5B-54" value="统计此数组小于ans的前缀个数" style="text;html=1;align=center;verticalAlign=middle;whiteSpace=wrap;rounded=0;" vertex="1" parent="1">
          <mxGeometry x="390" y="120" width="170" height="30" as="geometry" />
        </mxCell>
        <mxCell id="yoNPwfW2ZA3Lmr0KiJ5B-55" value="" style="endArrow=classic;startArrow=classic;html=1;rounded=0;fillColor=#f8cecc;strokeColor=#b85450;" edge="1" parent="1">
          <mxGeometry width="50" height="50" relative="1" as="geometry">
            <mxPoint x="230" y="270" as="sourcePoint" />
            <mxPoint x="280" y="270" as="targetPoint" />
          </mxGeometry>
        </mxCell>
        <mxCell id="yoNPwfW2ZA3Lmr0KiJ5B-56" value="" style="endArrow=classic;startArrow=classic;html=1;rounded=0;fillColor=#f8cecc;strokeColor=#b85450;" edge="1" parent="1">
          <mxGeometry width="50" height="50" relative="1" as="geometry">
            <mxPoint x="180" y="250" as="sourcePoint" />
            <mxPoint x="280" y="250" as="targetPoint" />
          </mxGeometry>
        </mxCell>
        <mxCell id="yoNPwfW2ZA3Lmr0KiJ5B-57" value="" style="endArrow=classic;startArrow=classic;html=1;rounded=0;fillColor=#f8cecc;strokeColor=#b85450;" edge="1" parent="1">
          <mxGeometry width="50" height="50" relative="1" as="geometry">
            <mxPoint x="130" y="230" as="sourcePoint" />
            <mxPoint x="280" y="230" as="targetPoint" />
          </mxGeometry>
        </mxCell>
        <mxCell id="yoNPwfW2ZA3Lmr0KiJ5B-58" value="" style="endArrow=classic;startArrow=classic;html=1;rounded=0;fillColor=#f8cecc;strokeColor=#b85450;" edge="1" parent="1">
          <mxGeometry width="50" height="50" relative="1" as="geometry">
            <mxPoint x="30" y="199.5" as="sourcePoint" />
            <mxPoint x="280" y="200" as="targetPoint" />
          </mxGeometry>
        </mxCell>
        <mxCell id="yoNPwfW2ZA3Lmr0KiJ5B-59" value="红色线的区间即是满足和大于0的区间" style="text;html=1;align=center;verticalAlign=middle;whiteSpace=wrap;rounded=0;fontColor=#FF3333;" vertex="1" parent="1">
          <mxGeometry x="280" y="215" width="80" height="30" as="geometry" />
        </mxCell>
        <mxCell id="yoNPwfW2ZA3Lmr0KiJ5B-61" value="" style="shape=flexArrow;endArrow=classic;html=1;rounded=0;" edge="1" parent="1">
          <mxGeometry width="50" height="50" relative="1" as="geometry">
            <mxPoint x="380" y="140" as="sourcePoint" />
            <mxPoint x="330" y="200" as="targetPoint" />
          </mxGeometry>
        </mxCell>
      </root>
    </mxGraphModel>
  </diagram>
</mxfile>
